<svg width="16" height="16" viewBox="0 0 16 16" fill="none" xmlns="http://www.w3.org/2000/svg">
<g opacity="0.5" clip-path="url(#clip0_381_2044)">
<path d="M10.355 2.92664C10.4388 3.01053 10.5434 3.07055 10.6581 3.10051C10.7729 3.13047 10.8935 3.12929 11.0076 3.0971C11.1217 3.0649 11.2252 3.00285 11.3074 2.91734C11.3895 2.83183 11.4474 2.72596 11.475 2.61064C11.5442 2.32258 11.6889 2.05816 11.8943 1.84463C12.0996 1.6311 12.3582 1.47617 12.6434 1.39579C12.9285 1.31542 13.2299 1.31251 13.5166 1.38736C13.8033 1.46221 14.0648 1.61211 14.2742 1.82164C14.4837 2.03116 14.6335 2.29273 14.7083 2.57941C14.783 2.86609 14.78 3.16751 14.6995 3.45264C14.6191 3.73777 14.464 3.99629 14.2504 4.20159C14.0368 4.40689 13.7724 4.55154 13.4843 4.62064C13.369 4.64824 13.2631 4.7061 13.1776 4.78824C13.0921 4.87039 13.03 4.97386 12.9978 5.08797C12.9656 5.20209 12.9645 5.32273 12.9944 5.43746C13.0244 5.55218 13.0844 5.65684 13.1683 5.74064L14.2903 6.86198C14.4397 7.01142 14.5583 7.18883 14.6392 7.38409C14.7201 7.57935 14.7617 7.78863 14.7617 7.99998C14.7617 8.21133 14.7201 8.4206 14.6392 8.61586C14.5583 8.81112 14.4397 8.98854 14.2903 9.13798L13.1683 10.26C13.0845 10.3439 12.9798 10.4039 12.8651 10.4338C12.7504 10.4638 12.6297 10.4626 12.5156 10.4304C12.4015 10.3982 12.298 10.3362 12.2159 10.2507C12.1337 10.1652 12.0759 10.0593 12.0483 9.94398C11.9791 9.65591 11.8344 9.39149 11.629 9.17796C11.4236 8.96443 11.165 8.8095 10.8799 8.72913C10.5947 8.64875 10.2933 8.64584 10.0067 8.72069C9.72 8.79554 9.45848 8.94545 9.24903 9.15497C9.03957 9.3645 8.88975 9.62607 8.815 9.91275C8.74024 10.1994 8.74325 10.5008 8.82372 10.786C8.90419 11.0711 9.05921 11.3296 9.27281 11.5349C9.48641 11.7402 9.75087 11.8849 10.039 11.954C10.1543 11.9816 10.2601 12.0394 10.3457 12.1216C10.4312 12.2037 10.4932 12.3072 10.5254 12.4213C10.5576 12.5354 10.5588 12.6561 10.5288 12.7708C10.4989 12.8855 10.4388 12.9902 10.355 13.074L9.23296 14.1953C9.08352 14.3448 8.9061 14.4633 8.71085 14.5442C8.51559 14.6251 8.30631 14.6667 8.09496 14.6667C7.88361 14.6667 7.67434 14.6251 7.47908 14.5442C7.28382 14.4633 7.1064 14.3448 6.95696 14.1953L5.83496 13.0733C5.75116 12.9894 5.6465 12.9294 5.53178 12.8994C5.41705 12.8695 5.29641 12.8707 5.18229 12.9029C5.06817 12.9351 4.96471 12.9971 4.88256 13.0826C4.80041 13.1681 4.74256 13.274 4.71496 13.3893C4.64576 13.6774 4.50102 13.9418 4.29565 14.1553C4.09028 14.3689 3.83171 14.5238 3.54655 14.6042C3.2614 14.6845 2.95998 14.6874 2.67332 14.6126C2.38667 14.5377 2.12515 14.3878 1.91569 14.1783C1.70624 13.9688 1.55642 13.7072 1.48166 13.4205C1.40691 13.1339 1.40992 12.8324 1.49039 12.5473C1.57086 12.2622 1.72587 12.0037 1.93947 11.7984C2.15307 11.5931 2.41754 11.4484 2.70563 11.3793C2.82094 11.3517 2.92681 11.2939 3.01232 11.2117C3.09783 11.1296 3.15988 11.0261 3.19208 10.912C3.22428 10.7979 3.22546 10.6772 3.19549 10.5625C3.16553 10.4478 3.10551 10.3431 3.02163 10.2593L1.89963 9.13798C1.75018 8.98854 1.63163 8.81112 1.55075 8.61586C1.46986 8.4206 1.42824 8.21133 1.42824 7.99998C1.42824 7.78863 1.46986 7.57935 1.55075 7.38409C1.63163 7.18883 1.75018 7.01142 1.89963 6.86198L3.02163 5.73998C3.10543 5.65609 3.21009 5.59607 3.32481 5.56611C3.43954 5.53615 3.56018 5.53733 3.6743 5.56953C3.78842 5.60172 3.89188 5.66378 3.97403 5.74928C4.05618 5.83479 4.11403 5.94066 4.14163 6.05598C4.21083 6.34405 4.35557 6.60846 4.56094 6.82199C4.76631 7.03553 5.02488 7.19046 5.31004 7.27083C5.59519 7.3512 5.89661 7.35411 6.18327 7.27926C6.46992 7.20441 6.73144 7.05451 6.94089 6.84498C7.15035 6.63546 7.30017 6.37389 7.37493 6.08721C7.44968 5.80053 7.44667 5.49911 7.3662 5.21398C7.28573 4.92886 7.13072 4.67033 6.91712 4.46503C6.70352 4.25974 6.43905 4.11509 6.15096 4.04598C6.03564 4.01838 5.92977 3.96053 5.84427 3.87838C5.75876 3.79623 5.69671 3.69277 5.66451 3.57865C5.63231 3.46453 5.63113 3.34389 5.6611 3.22916C5.69106 3.11444 5.75107 3.00978 5.83496 2.92598L6.95696 1.80464C7.1064 1.6552 7.28382 1.53664 7.47908 1.45576C7.67434 1.37488 7.88361 1.33325 8.09496 1.33325C8.30631 1.33325 8.51559 1.37488 8.71085 1.45576C8.9061 1.53664 9.08352 1.6552 9.23296 1.80464L10.355 2.92664Z" stroke="#1F242E" stroke-width="1.33333" stroke-linecap="round" stroke-linejoin="round"/>
</g>
<defs>
<clipPath id="clip0_381_2044">
<rect width="16" height="16" fill="white"/>
</clipPath>
</defs>
</svg>
