<svg width="15" height="14" viewBox="0 0 15 14" fill="none" xmlns="http://www.w3.org/2000/svg">
<path d="M1.33341 10.6667C1.1566 10.6667 0.987034 10.5965 0.86201 10.4715C0.736986 10.3465 0.666748 10.1769 0.666748 10.0001V1.33341C0.666748 1.1566 0.736986 0.987034 0.86201 0.86201C0.987034 0.736986 1.1566 0.666748 1.33341 0.666748H4.66675C5.37399 0.666748 6.05227 0.9477 6.55237 1.4478C7.05246 1.94789 7.33341 2.62617 7.33341 3.33341C7.33341 2.62617 7.61437 1.94789 8.11446 1.4478C8.61456 0.9477 9.29284 0.666748 10.0001 0.666748H13.3334C13.5102 0.666748 13.6798 0.736986 13.8048 0.86201C13.9298 0.987034 14.0001 1.1566 14.0001 1.33341V10.0001C14.0001 10.1769 13.9298 10.3465 13.8048 10.4715C13.6798 10.5965 13.5102 10.6667 13.3334 10.6667H9.33341C8.80298 10.6667 8.29427 10.8775 7.9192 11.2525C7.54413 11.6276 7.33341 12.1363 7.33341 12.6667C7.33341 12.1363 7.1227 11.6276 6.74763 11.2525C6.37256 10.8775 5.86385 10.6667 5.33341 10.6667H1.33341Z" stroke="#6F552E" stroke-width="1.33333" stroke-linecap="round" stroke-linejoin="round"/>
</svg>
