<svg width="80" height="80" viewBox="0 0 80 80" fill="none" xmlns="http://www.w3.org/2000/svg">
<rect width="80" height="80" rx="20" fill="#FBC6BA"/>
<path d="M19.0074 46.5531V35.555M26.0958 40.1669L20.0038 36.1568C19.7004 35.9595 19.4503 35.6905 19.2754 35.3737C19.1005 35.0569 19.0061 34.702 19.0007 34.3401C18.9912 33.9632 19.0784 33.588 19.254 33.2543C19.4296 32.9207 19.6877 32.6376 20.0038 32.4321L35.1212 22.4704C36.5773 21.5112 38.2826 21 40.0262 21C41.7699 21 43.4752 21.5112 44.9313 22.4704L59.487 32.0598C59.8567 32.3035 60.1601 32.6351 60.3701 33.0249C60.5801 33.4147 60.69 33.8506 60.69 34.2933C60.69 34.7361 60.5801 35.172 60.3701 35.5618C60.1601 35.9516 59.8567 36.2832 59.487 36.5268L53.9589 40.1691V51.4526C53.9589 52.556 53.6914 53.6526 52.9781 54.493C51.313 56.4479 47.3743 59.8204 40.0274 59.8204C32.6804 59.8204 28.7417 56.4479 27.0766 54.493C26.361 53.6526 26.0958 52.556 26.0958 51.4526V40.1691L35.1212 46.114C36.5775 47.0737 38.2833 47.5852 40.0274 47.5852C41.7714 47.5852 43.4772 47.0737 44.9335 46.114L53.9589 40.1669M19.0007 34.3401V35.5572" stroke="#6F3A2E" stroke-width="3" stroke-linecap="round" stroke-linejoin="round"/>
</svg>
