<svg width="80" height="80" viewBox="0 0 80 80" fill="none" xmlns="http://www.w3.org/2000/svg">
<rect width="80" height="80" rx="20" fill="#DDBBFB"/>
<path d="M40 46.25C43.4518 46.25 46.25 43.4518 46.25 40C46.25 36.5482 43.4518 33.75 40 33.75C36.5482 33.75 33.75 36.5482 33.75 40C33.75 43.4518 36.5482 46.25 40 46.25Z" stroke="#5B3979" stroke-width="3" stroke-miterlimit="10" stroke-linecap="round" stroke-linejoin="round"/>
<path d="M19.166 41.8334V38.1667C19.166 36.0001 20.9368 34.2084 23.1243 34.2084C26.8952 34.2084 28.4368 31.5417 26.541 28.2709C25.4577 26.3959 26.1035 23.9584 27.9993 22.8751L31.6035 20.8126C33.2493 19.8334 35.3743 20.4167 36.3535 22.0626L36.5827 22.4584C38.4577 25.7292 41.541 25.7292 43.4368 22.4584L43.666 22.0626C44.6452 20.4167 46.7702 19.8334 48.416 20.8126L52.0202 22.8751C53.916 23.9584 54.5618 26.3959 53.4785 28.2709C51.5827 31.5417 53.1243 34.2084 56.8952 34.2084C59.0618 34.2084 60.8535 35.9792 60.8535 38.1667V41.8334C60.8535 44.0001 59.0827 45.7917 56.8952 45.7917C53.1243 45.7917 51.5827 48.4584 53.4785 51.7292C54.5618 53.6251 53.916 56.0417 52.0202 57.1251L48.416 59.1876C46.7702 60.1667 44.6452 59.5834 43.666 57.9376L43.4368 57.5417C41.5618 54.2709 38.4785 54.2709 36.5827 57.5417L36.3535 57.9376C35.3743 59.5834 33.2493 60.1667 31.6035 59.1876L27.9993 57.1251C26.1035 56.0417 25.4577 53.6042 26.541 51.7292C28.4368 48.4584 26.8952 45.7917 23.1243 45.7917C20.9368 45.7917 19.166 44.0001 19.166 41.8334Z" stroke="#5B3979" stroke-width="3" stroke-miterlimit="10" stroke-linecap="round" stroke-linejoin="round"/>
</svg>
