<svg width="80" height="80" viewBox="0 0 80 80" fill="none" xmlns="http://www.w3.org/2000/svg">
<rect width="80" height="80" rx="20" fill="#DCE0F4"/>
<path d="M39.6611 17.75C43.6079 17.7556 47.4749 18.8591 50.8301 20.9365C51.0513 20.9911 51.2469 21.1186 51.3887 21.2969C54.3338 23.2349 56.7534 25.8721 58.4307 28.9736C60.1141 32.0867 60.9971 35.5694 61 39.1084C61.0009 39.1181 61.0003 39.1279 61.001 39.1377C61.4451 39.3574 61.8246 39.6903 62.0986 40.1055C62.4036 40.5675 62.565 41.1095 62.5625 41.6631V43.5859C62.5602 44.3288 62.2645 45.0411 61.7393 45.5664C61.214 46.0917 60.5017 46.3873 59.7588 46.3896H19.5537C19.1838 46.3885 18.8178 46.3147 18.4766 46.1719C18.1353 46.029 17.8249 45.8204 17.5645 45.5576C17.304 45.2947 17.0978 44.9823 16.958 44.6396C16.8183 44.2972 16.7478 43.9304 16.75 43.5605V41.6387C16.7523 41.0891 16.9159 40.5521 17.2207 40.0947C17.494 39.6847 17.8707 39.3555 18.3105 39.1377C18.3112 39.1282 18.3116 39.1188 18.3125 39.1094L18.3223 38.4453C18.4232 35.1299 19.2955 31.8802 20.874 28.9561C22.5513 25.8489 24.9736 23.2065 27.9229 21.2656C28.0646 21.0871 28.261 20.9599 28.4824 20.9053C31.8436 18.8371 35.7141 17.7444 39.6611 17.75ZM19.5547 40.9209C19.3579 40.9209 19.1694 40.9996 19.0303 41.1387C18.8912 41.2778 18.8126 41.4664 18.8125 41.6631V43.585C18.8125 43.7818 18.8911 43.9712 19.0303 44.1104C19.1694 44.2493 19.358 44.3271 19.5547 44.3271H59.7578C59.9545 44.3271 60.1431 44.2493 60.2822 44.1104C60.4214 43.9712 60.5 43.7818 60.5 43.585V41.6631C60.4999 41.4664 60.4213 41.2778 60.2822 41.1387C60.1431 40.9996 59.9546 40.9209 59.7578 40.9209H19.5547ZM43.0312 28.7021H46.6641C46.876 28.7022 47.0834 28.7679 47.2568 28.8896C47.4301 29.0114 47.5618 29.1837 47.6338 29.3828L51.0322 38.7578L51.0391 38.7783L51.043 38.8008C51.0463 38.8199 51.0486 38.8391 51.0508 38.8584H58.9336C58.8958 35.9512 58.2035 33.0888 56.9023 30.4863C55.639 27.9597 53.8365 25.7431 51.625 23.9922V28.1709C51.625 28.4443 51.5166 28.707 51.3232 28.9004C51.1298 29.0938 50.8673 29.2021 50.5938 29.2021C50.3203 29.2021 50.0576 29.0938 49.8643 28.9004C49.671 28.707 49.5625 28.4443 49.5625 28.1709V22.5703C47.5518 21.3644 45.3385 20.5356 43.0312 20.124V28.7021ZM39.6562 19.8271C39.2061 19.8271 38.7707 19.8297 38.3438 19.8721V29.7334C38.3438 30.0068 38.2353 30.2695 38.042 30.4629C37.8486 30.6563 37.586 30.7646 37.3125 30.7646H33.418L30.4746 38.8584H48.8457L45.9023 30.7646H42C41.7265 30.7646 41.4639 30.6563 41.2705 30.4629C41.0772 30.2695 40.9688 30.0068 40.9688 29.7334V19.8721C40.5418 19.8297 40.1064 19.8271 39.6562 19.8271ZM36.2812 20.124C33.974 20.5356 31.7607 21.3644 29.75 22.5703V28.1709C29.75 28.4443 29.6415 28.707 29.4482 28.9004C29.2548 29.0938 28.9923 29.2021 28.7188 29.2021C28.4453 29.2021 28.1826 29.0938 27.9893 28.9004C27.796 28.707 27.6875 28.4443 27.6875 28.1709V23.9922C25.476 25.7431 23.6734 27.9597 22.4102 30.4863C21.109 33.0888 20.4167 35.9512 20.3789 38.8584H28.291C28.2982 38.8268 28.3072 38.7955 28.3174 38.7646L28.3193 38.7578L31.7178 29.3828C31.7898 29.1836 31.9223 29.0114 32.0957 28.8896C32.2691 28.768 32.4757 28.7022 32.6875 28.7021H36.2812V20.124Z" fill="#505468" stroke="#505468" stroke-width="0.5"/>
<path d="M58.4062 48.3899C58.6798 48.3899 58.9423 48.4983 59.1357 48.6917C59.3291 48.885 59.4375 49.1476 59.4375 49.4211V50.0999C59.5966 50.0042 59.78 49.9524 59.9688 49.9524C60.2423 49.9524 60.5048 50.0608 60.6982 50.2542C60.8916 50.4475 61 50.7101 61 50.9836V56.4524C61 56.7259 60.8916 56.9885 60.6982 57.1819C60.5048 57.3753 60.2423 57.4836 59.9688 57.4836C59.7798 57.4836 59.5967 57.431 59.4375 57.3352V58.012L59.4346 58.1047C59.4176 58.3201 59.3333 58.5258 59.1924 58.6917C59.0313 58.8812 58.8065 59.0049 58.5605 59.0422L58.5615 59.0432L43.4209 61.387L43.4023 61.3899H43.2656V61.3889C43.107 61.3898 42.9502 61.3549 42.8076 61.2854C42.6646 61.2156 42.5395 61.1137 42.4424 60.9875V60.9866L39.6562 57.3391L36.8701 60.9866V60.9875C36.773 61.1137 36.6479 61.2156 36.5049 61.2854C36.3623 61.3549 36.2055 61.3898 36.0469 61.3889V61.3899H35.9102L35.8916 61.387L20.751 59.0432V59.0422C20.5054 59.0048 20.281 58.881 20.1201 58.6917C19.9591 58.5022 19.8722 58.2606 19.875 58.012V57.3352C19.7158 57.431 19.5327 57.4836 19.3438 57.4836C19.0702 57.4836 18.8077 57.3753 18.6143 57.1819C18.4209 56.9885 18.3125 56.7259 18.3125 56.4524V50.9836C18.3125 50.7101 18.4209 50.4475 18.6143 50.2542C18.8077 50.0608 19.0702 49.9524 19.3438 49.9524C19.5325 49.9524 19.7159 50.0042 19.875 50.0999V49.4211C19.875 49.1476 19.9834 48.885 20.1768 48.6917C20.3702 48.4983 20.6327 48.3899 20.9062 48.3899H58.4062ZM21.9375 57.1282L35.6406 59.2444L38.625 55.3206V50.4524H21.9375V57.1282ZM40.6875 55.3206L43.6709 59.2444L57.375 57.1282V50.4524H40.6875V55.3206Z" fill="#505468" stroke="#505468" stroke-width="0.5"/>
</svg>
