<svg width="40" height="40" viewBox="0 0 40 40" fill="none" xmlns="http://www.w3.org/2000/svg">
<rect width="40" height="40" rx="12" fill="#FBC6BA"/>
<path d="M14.9987 28.3332C14.5567 28.3332 14.1327 28.1576 13.8202 27.845C13.5076 27.5325 13.332 27.1085 13.332 26.6665V13.3332C13.332 12.8911 13.5076 12.4672 13.8202 12.1547C14.1327 11.8421 14.5567 11.6665 14.9987 11.6665H21.6654C21.9292 11.6661 22.1904 11.7178 22.4341 11.8188C22.6778 11.9198 22.8992 12.068 23.0854 12.2548L26.0754 15.2448C26.2627 15.4311 26.4113 15.6526 26.5126 15.8966C26.6139 16.1407 26.6658 16.4023 26.6654 16.6665V26.6665C26.6654 27.1085 26.4898 27.5325 26.1772 27.845C25.8646 28.1576 25.4407 28.3332 24.9987 28.3332H14.9987Z" stroke="#6F3A2E" stroke-width="1.66667" stroke-linecap="round" stroke-linejoin="round"/>
<path d="M21.668 11.6665V15.8332C21.668 16.0542 21.7558 16.2661 21.912 16.4224C22.0683 16.5787 22.2803 16.6665 22.5013 16.6665H26.668" stroke="#6F3A2E" stroke-width="1.66667" stroke-linecap="round" stroke-linejoin="round"/>
<path d="M18.3346 17.5H16.668" stroke="#6F3A2E" stroke-width="1.66667" stroke-linecap="round" stroke-linejoin="round"/>
<path d="M23.3346 20.8335H16.668" stroke="#6F3A2E" stroke-width="1.66667" stroke-linecap="round" stroke-linejoin="round"/>
<path d="M23.3346 24.1665H16.668" stroke="#6F3A2E" stroke-width="1.66667" stroke-linecap="round" stroke-linejoin="round"/>
</svg>
