<svg width="104" height="80" viewBox="0 0 104 80" fill="none" xmlns="http://www.w3.org/2000/svg">
<g clip-path="url(#clip0_354_48)">
<path d="M68.6837 0C64.5828 5.18945 58.3452 11.496 51.514 18.1116C54.1093 25.8895 55.7509 33.9565 56.4027 42.1338L53.7587 39.7424C50.8665 43.6738 47.2836 46.2496 42.9346 47.307C43.4742 48.5921 44.0138 49.9478 44.4994 51.3577C44.6131 51.3111 44.7373 51.2961 44.8588 51.3142C44.9803 51.3323 45.0947 51.3829 45.1901 51.4607C45.2624 51.3587 45.3568 51.2745 45.4661 51.2144C45.5755 51.1543 45.6969 51.1199 45.8214 51.1137C45.5786 50.2786 45.2818 49.411 44.9796 48.5C48.1524 47.8886 50.9801 46.1 52.9008 43.4895C53.7357 45.9376 54.4418 48.4282 55.0159 50.951C55.079 50.8675 55.1607 50.8 55.2544 50.7538C55.3481 50.7077 55.4512 50.6842 55.5555 50.6853C55.6921 50.6824 55.8267 50.7181 55.944 50.7883C55.8061 48.3123 55.4905 45.8494 54.9998 43.419L56.7804 43.6196C57.0826 45.8754 57.32 48.1583 57.4441 50.463C57.5643 50.3791 57.7078 50.3354 57.8542 50.3382C57.9168 50.3299 57.9803 50.3299 58.043 50.3382C58.1687 50.2386 58.3254 50.1867 58.4855 50.1918H58.5772C58.7184 50.1856 58.8579 50.2249 58.9753 50.3039C59.0927 50.3829 59.182 50.4975 59.2301 50.6311L59.2894 50.7015L59.4729 50.8371C57.3523 36.8305 56.0034 23.5559 54.6166 17.6507C59.4405 14.0229 63.7303 10.5199 66.5631 7.34767C69.1909 13.4373 69.9301 21.4465 69.2071 30.9686L70.3942 30.242V8.16106C72.9333 11.4703 75.9357 14.3927 79.3081 16.8373C79.2218 22.3792 78.5905 26.3269 77.3926 28.5827L79.1732 30.0414C79.5456 27.0264 80.096 22.6395 80.6301 16.3058C75.5472 10.9049 71.2953 5.47143 68.6837 0Z" fill="#505468"/>
<path d="M68.1445 64.3611C68.7758 50.3003 68.3927 39.1134 66.229 32.975C69.6487 31.4466 72.8469 29.4602 75.7365 27.0697C78.4366 30.1114 81.6867 32.6103 85.3142 34.4337C83.431 42.9743 82.5299 53.2176 82.1414 64.3611C81.2295 54.5625 81.2295 44.677 83.5983 34.5692L77.9812 31.8579C78.0244 41.0764 77.0261 53.505 75.7743 66.6929C76.3139 53.0441 76.5135 40.4094 75.5423 31.359L67.6157 33.9836C70.7615 45.1759 70.2705 55.0668 68.1445 64.3611Z" fill="#505468"/>
<path d="M24.2332 74.9407C82.7568 95.8503 132.302 45.1542 85.309 41.6945C122.578 52.8055 74.6522 89.1913 24.2332 74.9407Z" fill="#505468"/>
<path d="M84.4294 43.034C96.6079 44.048 101.955 55.4138 89.9926 62.6259C97.4065 52.8869 93.311 46.8786 84.4294 43.034Z" fill="#505468"/>
<path d="M22.6137 70.6026C24.3457 68.157 24.5346 66.3567 24.6371 62.8103L22.1064 63.1465V60.0285H24.6371C24.8314 56.8996 23.7792 53.1851 22.1064 49.1832H30.47L31.3981 50.8805C40.5958 51.2377 49.8071 50.9532 58.9656 50.0291C57.757 54.8498 57.4602 59.3561 58.4584 63.4176C62.0089 64.052 65.5162 63.0055 68.9966 61.1293C69.9354 62.5012 71.538 63.423 73.3834 64.1822C72.1532 64.1117 70.8527 63.9219 68.8293 62.4036C67.4712 65.4563 67.3512 68.921 68.4947 72.0613C67.1673 69.5126 65.8454 66.964 67.4803 63.5857C64.0776 64.9091 60.4959 65.7098 56.8559 65.9608C55.8684 68.5799 55.9493 69.7566 55.6795 72.9072C55.3666 71.7142 55.0536 65.4457 55.4259 64.0954C56.1166 63.8839 56.7425 64.2039 57.3631 63.5043C56.436 59.7564 56.3493 55.8483 57.1094 52.0626C47.9365 52.6428 34.9378 52.914 24.9879 52.2361C25.9083 54.7913 26.4094 57.4798 26.4717 60.1966C35.4445 61.0072 44.307 62.7685 52.9115 65.4511L52.9978 66.2157C44.3539 63.8049 35.4085 62.6633 26.4393 62.8265C26.2181 66.4705 26.0886 68.4173 24.4159 71.2099L22.6137 70.6026Z" fill="#505468" stroke="#505468" stroke-miterlimit="10"/>
<path d="M34.4148 64.9088C35.0731 66.6224 35.1109 69.5398 34.7817 71.416H35.4886C35.3407 69.2241 35.5688 67.023 36.1631 64.9088H34.4148Z" fill="#505468" stroke="#505468" stroke-miterlimit="10"/>
<path d="M40.0319 64.9468C39.3952 66.0313 39.4924 69.3771 39.6111 71.4539C40.0158 69.0138 40.5554 65.489 41.4781 64.8383L40.0319 64.9468Z" fill="#505468" stroke="#505468" stroke-miterlimit="10"/>
<path d="M59.3218 50.7286C60.11 52.9478 61.5611 54.8682 63.4766 56.2272C64.1827 58.1837 64.5708 60.2417 64.6259 62.3222C64.9984 59.7251 64.9328 57.0834 64.4317 54.5082C62.4161 53.7425 60.6484 52.435 59.3218 50.7286Z" fill="#505468" stroke="#505468" stroke-miterlimit="10"/>
<path d="M72.8554 65.2233C70.465 66.4163 70.9668 69.3337 71.9003 72.5005H72.8554C71.965 69.5181 71.4308 66.7579 72.8554 65.2233Z" fill="#505468" stroke="#505468" stroke-miterlimit="10"/>
<path d="M56.6407 21.3597C60.7146 18.7623 64.6482 16.2136 66.2616 14.4404C66.7963 15.2673 66.9898 16.2708 66.8012 17.2385C64.4 18.2634 60.5635 20.6765 56.6138 23.2034L56.6407 21.3597Z" fill="#505468" stroke="#505468" stroke-miterlimit="10"/>
<path d="M56.8672 24.8573L57.0507 26.2943C60.7468 24.212 64.2487 22.3955 67.4593 20.991C67.6257 20.6539 67.7123 20.2827 67.7123 19.9065C67.7123 19.5302 67.6257 19.159 67.4593 18.8219L56.8672 24.8573Z" fill="#505468" stroke="#505468" stroke-miterlimit="10"/>
<path d="M71.1338 18.5454C71.1338 18.5454 70.9882 20.4108 71.1338 20.5626C71.2795 20.7144 77.4578 22.5798 77.4578 22.5798L77.6521 21.3706L71.1338 18.5454Z" fill="#505468" stroke="#505468" stroke-miterlimit="10"/>
<path d="M71.1661 22.6937L71.0474 24.5157L77.5602 25.9039L77.749 24.5211L71.1661 22.6937Z" fill="#505468" stroke="#505468" stroke-miterlimit="10"/>
<path d="M69.3208 35.9791V36.6407L75.2563 34.9868V34.1734L69.3208 35.9791Z" fill="#505468"/>
<path d="M69.3423 38.3542L69.4448 38.9236L75.2454 37.4703L75.1644 36.7546L69.3423 38.3542Z" fill="#505468"/>
<path d="M25.652 70.4399L24.9937 71.6166L55.6584 73.4603L55.5019 71.6546C46.0753 72.468 36.0768 71.9474 25.652 70.4399Z" fill="#505468" stroke="#505468" stroke-miterlimit="10"/>
<path d="M68.506 72.2565C65.0958 72.4246 61.405 72.4897 57.5254 72.4788L57.8222 73.4603C61.1892 72.9253 64.7504 72.524 68.506 72.2565Z" fill="#505468" stroke="#505468" stroke-miterlimit="10"/>
<path d="M27.3894 54.4269L27.5837 55.5548C36.4977 55.8585 44.667 56.1947 54.7357 55.7554L54.9569 54.2751C45.1796 54.7902 36.7566 54.6438 27.3894 54.4269Z" fill="#505468" stroke="#505468" stroke-miterlimit="10"/>
<path d="M27.3894 57.7835L27.5837 58.9114C36.4977 59.2151 44.667 59.5459 54.7357 59.112L54.9569 57.6317C45.1796 58.1306 36.7566 58.0004 27.3894 57.7835Z" fill="#505468" stroke="#505468" stroke-miterlimit="10"/>
<path d="M78.2183 40.0516L78.1536 40.6155L81.9523 41.4289L82.0008 40.9517L78.2183 40.0516Z" fill="#505468" stroke="#505468" stroke-miterlimit="10"/>
<path d="M78.3909 38.0289L78.2776 38.7393L82.0871 39.5418L82.1842 38.9616L78.3909 38.0289Z" fill="#505468" stroke="#505468" stroke-miterlimit="10"/>
<path d="M6.46978 38.9616C6.47137 38.9863 6.46618 39.011 6.45476 39.033C6.44334 39.055 6.42614 39.0734 6.40503 39.0863C6.38997 39.1048 6.37102 39.1197 6.34957 39.13C6.32812 39.1403 6.30468 39.1458 6.2809 39.1459H5.41217C5.38681 39.1459 5.36172 39.1406 5.3385 39.1303C5.31528 39.12 5.29444 39.1051 5.27728 39.0863C5.25756 39.0724 5.24173 39.0536 5.23134 39.0317C5.22094 39.0099 5.21633 38.9857 5.21793 38.9616V28.946L4.71072 30.2474L4.49487 30.7897L4.28442 31.3319C4.21428 31.5109 4.14413 31.679 4.08478 31.8417C4.02542 32.0043 3.97148 32.1399 3.92831 32.2646L3.84199 32.4653L3.79341 32.5195C3.77552 32.5366 3.75429 32.5497 3.73107 32.5581C3.70785 32.5665 3.68314 32.57 3.65852 32.5683H2.80056C2.77594 32.57 2.75126 32.5665 2.72804 32.5581C2.70482 32.5497 2.68355 32.5366 2.66566 32.5195L2.63869 32.4924C2.64157 32.4836 2.64157 32.4741 2.63869 32.4653L2.55237 32.2646C2.50381 32.1399 2.44445 31.9989 2.3851 31.8417C2.32574 31.6844 2.261 31.5109 2.19086 31.3319L1.98041 30.7897C1.91026 30.5999 1.84011 30.4209 1.76996 30.2474L1.26275 28.946V38.9616C1.26435 38.9857 1.25974 39.0099 1.24935 39.0317C1.23895 39.0536 1.22312 39.0724 1.2034 39.0863C1.18624 39.1051 1.1654 39.12 1.14218 39.1303C1.11896 39.1406 1.09387 39.1459 1.06851 39.1459H0.199779C0.148762 39.1446 0.100305 39.1232 0.0648821 39.0863C0.0457537 39.0721 0.0306871 39.0531 0.0212119 39.0312C0.0117367 39.0093 0.00816935 38.9853 0.0109036 38.9616V24.9332C0.0116138 24.8796 0.0306886 24.828 0.0648821 24.7868C0.0813196 24.7708 0.10075 24.7583 0.122055 24.7499C0.14336 24.7415 0.166105 24.7375 0.188977 24.738H1.16563C1.18181 24.7369 1.19798 24.7403 1.21229 24.748C1.22661 24.7557 1.23851 24.7673 1.24658 24.7814C1.24658 24.8085 1.27894 24.8519 1.30052 24.9007C1.32211 24.9495 1.33829 24.9983 1.39224 25.1664C1.4462 25.3345 1.51636 25.5568 1.60809 25.8226C1.69982 26.0883 1.79695 26.4028 1.91026 26.7498C2.02357 27.0969 2.14226 27.4493 2.26097 27.8072C2.37968 28.1651 2.49301 28.5284 2.61172 28.8917C2.73043 29.2551 2.82755 29.5587 2.91388 29.8407L3.1405 30.5348C3.19986 30.7192 3.23223 30.8222 3.24302 30.8493C3.25382 30.8764 3.28079 30.7083 3.34015 30.524C3.3995 30.3396 3.48047 30.1118 3.5722 29.8299L3.87973 28.8755C3.99844 28.523 4.11177 28.1705 4.23588 27.791C4.35998 27.4114 4.47328 27.0806 4.59199 26.7335L4.89416 25.8117C4.98589 25.5406 5.05605 25.3237 5.11001 25.1556C5.16397 24.9875 5.19096 24.9007 5.19096 24.8953C5.20074 24.8549 5.21713 24.8164 5.2395 24.7814C5.24821 24.7662 5.26084 24.7537 5.27603 24.7451C5.29122 24.7365 5.30843 24.7322 5.32585 24.7326H6.30251C6.32538 24.7321 6.34812 24.7361 6.36943 24.7445C6.39073 24.7529 6.41016 24.7654 6.4266 24.7814C6.43474 24.8054 6.44759 24.8275 6.46438 24.8465C6.47059 24.8732 6.47059 24.9011 6.46438 24.9278L6.46978 38.9616Z" fill="#505468"/>
<path d="M9.66374 24.7271C9.92199 24.7258 10.1776 24.7794 10.4138 24.8844C10.8767 25.0786 11.2463 25.4461 11.4444 25.9093C11.5439 26.1534 11.5917 26.4156 11.5847 26.6793V38.9616C11.5857 38.986 11.5813 39.0104 11.572 39.033C11.5626 39.0557 11.5484 39.0759 11.5304 39.0925C11.5124 39.109 11.491 39.1214 11.4678 39.1287C11.4445 39.1361 11.42 39.1382 11.3958 39.135H10.5271C10.5028 39.1364 10.4786 39.1322 10.4562 39.1228C10.4338 39.1134 10.4137 39.0991 10.3976 39.0808C10.3628 39.0444 10.3435 38.9958 10.3436 38.9453V34.4554H8.97845V38.9453C8.97607 38.9963 8.95493 39.0446 8.91911 39.0808C8.90168 39.0989 8.88067 39.1131 8.85742 39.1224C8.83418 39.1318 8.80923 39.136 8.78421 39.135H7.91548C7.89123 39.1364 7.86699 39.1322 7.84458 39.1228C7.82216 39.1134 7.80214 39.0991 7.78599 39.0808C7.75123 39.0444 7.73187 38.9958 7.73201 38.9453V26.6793C7.72754 26.1689 7.92108 25.6768 8.2716 25.3074C8.44563 25.1332 8.65062 24.9934 8.87593 24.8952C9.12307 24.7818 9.39205 24.7244 9.66374 24.7271ZM10.3544 26.6685C10.3551 26.5774 10.3377 26.487 10.3032 26.4028C10.2687 26.3185 10.2178 26.2421 10.1534 26.1779C10.089 26.1138 10.0126 26.0632 9.92849 26.0291C9.8444 25.9951 9.75438 25.9783 9.66374 25.9798C9.5751 25.9785 9.48713 25.9956 9.40541 26.0301C9.32369 26.0647 9.24998 26.1158 9.1889 26.1804C9.12408 26.2436 9.07291 26.3196 9.03856 26.4036C9.00421 26.4875 8.98743 26.5777 8.98926 26.6685V33.1756H10.3544V26.6685Z" fill="#505468"/>
<path d="M15.3618 26.7173C15.3607 26.5808 15.3196 26.4477 15.2436 26.3346C15.1677 26.2214 15.0602 26.1333 14.9347 26.0812C14.8092 26.0291 14.6711 26.0154 14.5379 26.0417C14.4046 26.0681 14.282 26.1333 14.1855 26.2293C14.1217 26.2933 14.0712 26.3694 14.0369 26.4531C14.0026 26.5369 13.9853 26.6267 13.9858 26.7173V37.2046C13.9853 37.2952 14.0026 37.385 14.0369 37.4688C14.0712 37.5526 14.1217 37.6287 14.1855 37.6927C14.282 37.7887 14.4046 37.8539 14.5379 37.8802C14.6711 37.9066 14.8092 37.8928 14.9347 37.8407C15.0602 37.7887 15.1677 37.7006 15.2436 37.5874C15.3196 37.4743 15.3607 37.3411 15.3618 37.2046V35.1007C15.3602 35.0776 15.3638 35.0544 15.3722 35.0329C15.3806 35.0113 15.3936 34.9919 15.4103 34.976C15.4261 34.9582 15.4451 34.9438 15.4664 34.9336C15.4877 34.9234 15.5109 34.9175 15.5344 34.9163H16.4409C16.486 34.9206 16.529 34.9376 16.565 34.9651C16.5964 34.9975 16.6204 35.0363 16.6352 35.079V37.2046C16.6372 37.466 16.5838 37.7248 16.4787 37.9638C16.3727 38.1898 16.2305 38.3968 16.0578 38.5766C15.8852 38.7549 15.6776 38.8953 15.4481 38.9887C15.2151 39.0976 14.9604 39.1513 14.7035 39.146C14.4433 39.1496 14.1854 39.096 13.9481 38.9887C13.7167 38.9019 13.5095 38.7606 13.3437 38.5766C13.1677 38.3996 13.025 38.192 12.9228 37.9638C12.8272 37.7224 12.7795 37.4645 12.7825 37.2046V26.7173C12.7779 26.4573 12.8257 26.1991 12.9228 25.9581C13.0263 25.7307 13.1687 25.5232 13.3437 25.3454C13.5138 25.1639 13.7196 25.0198 13.9481 24.9224C14.1871 24.8206 14.4438 24.7672 14.7035 24.7652C14.96 24.7639 15.2138 24.8175 15.4481 24.9224C15.676 25.0236 15.8829 25.1671 16.0578 25.3454C16.2339 25.5223 16.3765 25.73 16.4787 25.9581C16.5838 26.1972 16.6372 26.456 16.6352 26.7173V28.0567C16.6243 28.1011 16.5998 28.141 16.565 28.1706C16.529 28.1981 16.486 28.2151 16.4409 28.2194H15.5614C15.5378 28.2182 15.5147 28.2123 15.4934 28.2021C15.4721 28.1918 15.453 28.1774 15.4373 28.1597C15.4214 28.1432 15.4089 28.1237 15.4006 28.1023C15.3922 28.0808 15.3882 28.058 15.3887 28.035L15.3618 26.7173Z" fill="#505468"/>
<path d="M21.2057 25.7954C21.2067 25.8206 21.2024 25.8456 21.1931 25.869C21.1838 25.8924 21.1697 25.9135 21.1517 25.931C21.1163 25.9679 21.0678 25.9893 21.0168 25.9907H19.8999V38.9724C19.901 38.9965 19.8961 39.0205 19.8858 39.0423C19.8754 39.064 19.8599 39.0829 19.8405 39.0971C19.8252 39.1149 19.8061 39.129 19.7846 39.1384C19.7631 39.1478 19.7398 39.1522 19.7164 39.1514H18.8477C18.8227 39.1524 18.7977 39.1481 18.7745 39.1387C18.7512 39.1294 18.7302 39.1152 18.7128 39.0971C18.6969 39.0806 18.6844 39.0611 18.676 39.0397C18.6677 39.0182 18.6637 38.9954 18.6642 38.9724V25.9907H17.5473C17.4966 25.988 17.4487 25.9666 17.4128 25.9306C17.3769 25.8945 17.3556 25.8464 17.353 25.7954V24.9278C17.3528 24.9046 17.3581 24.8817 17.3684 24.861C17.3787 24.8402 17.3938 24.8222 17.4124 24.8085C17.4288 24.7889 17.4496 24.7733 17.4729 24.7629C17.4963 24.7526 17.5218 24.7478 17.5473 24.7489H21.0168C21.0423 24.7482 21.0676 24.7532 21.0909 24.7635C21.1142 24.7738 21.135 24.7892 21.1517 24.8085C21.1696 24.8225 21.1839 24.8407 21.1933 24.8615C21.2027 24.8823 21.207 24.905 21.2057 24.9278V25.7954Z" fill="#505468"/>
<path d="M23.121 25.9961V29.7377H24.9933C25.0179 29.736 25.0426 29.7394 25.0659 29.7478C25.0891 29.7562 25.1103 29.7694 25.1282 29.7865C25.1614 29.8223 25.1822 29.868 25.1876 29.9166V30.7843C25.1855 30.8369 25.1644 30.8871 25.1282 30.9252C25.1103 30.9423 25.0891 30.9555 25.0659 30.9639C25.0426 30.9723 25.0179 30.9758 24.9933 30.9741H23.121V37.8933H25.6138C25.6368 37.8921 25.6597 37.8959 25.6811 37.9043C25.7025 37.9127 25.7219 37.9256 25.7379 37.9421C25.7549 37.9601 25.768 37.9815 25.7764 38.0048C25.7848 38.0281 25.7882 38.053 25.7865 38.0777V38.9616C25.7882 38.9863 25.7848 39.0112 25.7764 39.0345C25.768 39.0578 25.7549 39.0792 25.7379 39.0972C25.7219 39.1137 25.7025 39.1266 25.6811 39.135C25.6597 39.1434 25.6368 39.1471 25.6138 39.1459H22.085C22.0621 39.1465 22.0393 39.1424 22.018 39.1341C21.9967 39.1257 21.9773 39.1131 21.9608 39.0972C21.9438 39.0792 21.9308 39.0578 21.9224 39.0345C21.914 39.0112 21.9106 38.9863 21.9123 38.9616V24.9332C21.9107 24.9101 21.9143 24.887 21.9227 24.8654C21.9311 24.8439 21.9441 24.8244 21.9608 24.8085C21.9743 24.7883 21.9929 24.7721 22.0147 24.7616C22.0366 24.7511 22.0608 24.7467 22.085 24.7489H25.6138C25.6379 24.7473 25.6619 24.7519 25.6837 24.7624C25.7054 24.7728 25.7241 24.7887 25.7379 24.8085C25.7547 24.8244 25.7677 24.8439 25.7761 24.8654C25.7845 24.887 25.7881 24.9101 25.7865 24.9332V25.8063C25.7882 25.831 25.7848 25.8559 25.7764 25.8792C25.768 25.9025 25.7549 25.9239 25.7379 25.9419C25.7229 25.96 25.7038 25.9743 25.6823 25.9837C25.6607 25.9931 25.6373 25.9974 25.6138 25.9961H23.121Z" fill="#505468"/>
<path d="M29.2887 24.8627C29.6478 25.005 29.9574 25.2501 30.179 25.5677C30.4108 25.8809 30.534 26.2619 30.5297 26.6522V33.0184C30.532 33.4084 30.4091 33.7888 30.179 34.1029C29.9558 34.419 29.6467 34.6637 29.2887 34.8078C29.1985 34.8371 29.1066 34.8606 29.0135 34.8783L28.7167 34.9217C28.681 34.9279 28.6445 34.9279 28.6088 34.9217H27.9289V38.8965C27.9299 38.9217 27.9256 38.9467 27.9163 38.9701C27.907 38.9934 27.8929 39.0146 27.8749 39.0321C27.8395 39.069 27.7911 39.0904 27.7401 39.0917H26.8713C26.846 39.0917 26.8209 39.0864 26.7977 39.0761C26.7744 39.0658 26.7536 39.0509 26.7364 39.0321C26.7079 38.9924 26.691 38.9454 26.6879 38.8965V24.9332C26.6863 24.9101 26.6899 24.887 26.6983 24.8654C26.7067 24.8439 26.7197 24.8244 26.7364 24.8085C26.7644 24.772 26.8047 24.7469 26.8497 24.738H28.7167C28.7642 24.7523 28.813 24.7614 28.8624 24.7651C28.9126 24.7602 28.9632 24.7602 29.0135 24.7651L29.2887 24.8627ZM29.2887 26.6685C29.29 26.5794 29.2729 26.491 29.2385 26.4089C29.2042 26.3268 29.1533 26.2527 29.089 26.1913C29.0267 26.1268 28.952 26.0758 28.8694 26.0413C28.7869 26.0068 28.6982 25.9896 28.6088 25.9907H27.9289V33.7287H28.6088C28.6985 33.7287 28.7874 33.7109 28.8702 33.6762C28.953 33.6415 29.0283 33.5907 29.0915 33.5267C29.1547 33.4627 29.2046 33.3867 29.2385 33.3032C29.2723 33.2197 29.2894 33.1302 29.2887 33.0401V26.6685Z" fill="#505468"/>
<path d="M32.9036 38.9725C32.9023 38.9967 32.8961 39.0204 32.8856 39.0423C32.8751 39.0641 32.8604 39.0836 32.8424 39.0997C32.8243 39.1159 32.8033 39.1282 32.7805 39.1362C32.7577 39.1441 32.7335 39.1474 32.7094 39.146H31.8406C31.791 39.1482 31.7426 39.1306 31.7057 39.0972C31.6802 39.0604 31.6653 39.0172 31.6626 38.9725V24.9224C31.6633 24.8739 31.6783 24.8267 31.7057 24.7869C31.7426 24.7534 31.791 24.7359 31.8406 24.7381H35.3264C35.3493 24.7375 35.372 24.7416 35.3933 24.75C35.4146 24.7583 35.434 24.7709 35.4505 24.7869C35.4692 24.8041 35.4841 24.8251 35.4943 24.8484C35.5045 24.8717 35.5098 24.8969 35.5099 24.9224V25.7955C35.5098 25.821 35.5045 25.8462 35.4943 25.8695C35.4841 25.8928 35.4692 25.9138 35.4505 25.931C35.4354 25.9495 35.4165 25.9645 35.395 25.9748C35.3736 25.9851 35.3502 25.9905 35.3264 25.9907H32.8982L32.9036 38.9725Z" fill="#505468"/>
<path d="M38.7962 24.8627C39.1544 25.0039 39.4626 25.2493 39.6811 25.5676C39.917 25.879 40.0424 26.2608 40.0372 26.6522V33.0183C40.0399 33.4093 39.9148 33.7903 39.6811 34.1029C39.4611 34.4198 39.1534 34.6649 38.7962 34.8078C38.7058 34.8364 38.6139 34.8599 38.521 34.8783L38.2188 34.9217C38.185 34.9287 38.1501 34.9287 38.1163 34.9217H37.4364V38.8965C37.4338 38.9474 37.4125 38.9955 37.3766 39.0316C37.3407 39.0676 37.2928 39.0891 37.2421 39.0917H36.3734C36.3224 39.0904 36.2739 39.069 36.2385 39.032C36.211 38.9922 36.196 38.945 36.1953 38.8965V24.9332C36.1927 24.9105 36.1952 24.8875 36.2027 24.8659C36.2102 24.8443 36.2224 24.8246 36.2385 24.8085C36.2685 24.7715 36.3106 24.7466 36.3572 24.738H38.2188C38.2682 24.7518 38.3188 24.7609 38.3699 24.7651C38.4183 24.7598 38.4671 24.7598 38.5156 24.7651L38.7962 24.8627ZM38.7962 26.6684C38.7964 26.579 38.7784 26.4905 38.7431 26.4084C38.7078 26.3263 38.6561 26.2524 38.5911 26.1912C38.5302 26.1264 38.4566 26.0751 38.3748 26.0405C38.293 26.006 38.205 25.989 38.1163 25.9906H37.4364V33.7287H38.1163C38.205 33.7303 38.293 33.7133 38.3748 33.6788C38.4566 33.6442 38.5302 33.5929 38.5911 33.5281C38.6566 33.4651 38.7087 33.3893 38.7439 33.3054C38.7792 33.2214 38.797 33.1311 38.7962 33.04V26.6684Z" fill="#505468"/>
<path d="M43.0973 24.7272C43.3555 24.7258 43.6111 24.7794 43.8473 24.8844C44.0752 24.9837 44.2836 25.1233 44.4624 25.2966C44.6375 25.4732 44.7784 25.6809 44.8779 25.9093C44.9848 26.1518 45.04 26.4141 45.0398 26.6793V38.9616C45.0408 38.9861 45.0364 39.0105 45.0271 39.0331C45.0177 39.0557 45.0035 39.076 44.9855 39.0925C44.9675 39.109 44.9462 39.1214 44.9229 39.1288C44.8997 39.1361 44.8751 39.1383 44.8509 39.1351H43.9606C43.9365 39.1353 43.9126 39.1307 43.8903 39.1213C43.8681 39.112 43.8479 39.0982 43.8311 39.0809C43.8 39.0426 43.7829 38.9947 43.7825 38.9453V34.4554H42.412V38.9453C42.4121 38.9958 42.3928 39.0444 42.3581 39.0809C42.3402 39.0984 42.3191 39.1122 42.296 39.1215C42.2728 39.1309 42.2481 39.1354 42.2232 39.1351H41.3544C41.3301 39.1364 41.3059 39.1322 41.2835 39.1228C41.2611 39.1134 41.2411 39.0991 41.2249 39.0809C41.1901 39.0444 41.1708 38.9958 41.171 38.9453V26.6793C41.1689 26.4185 41.2203 26.1601 41.322 25.9202C41.4216 25.6932 41.5605 25.4857 41.7321 25.3074C41.9081 25.1331 42.1149 24.9933 42.3419 24.8953C42.5791 24.7864 42.8365 24.7291 43.0973 24.7272ZM43.7879 26.6685C43.7887 26.5774 43.771 26.4871 43.7357 26.4031C43.7004 26.3192 43.6484 26.2434 43.5829 26.1804C43.5206 26.1145 43.4451 26.0625 43.3614 26.028C43.2777 25.9934 43.1877 25.977 43.0973 25.9798C43.0079 25.9787 42.9192 25.9959 42.8366 26.0304C42.7541 26.0649 42.6793 26.116 42.617 26.1804C42.5532 26.2444 42.5027 26.3205 42.4685 26.4043C42.4342 26.4881 42.4168 26.5779 42.4174 26.6685V33.1756H43.7879V26.6685Z" fill="#505468"/>
<path d="M46.9334 39.1514V39.6394C46.9358 39.6652 46.9317 39.6912 46.9213 39.7149C46.9109 39.7387 46.8946 39.7594 46.874 39.775C46.8583 39.7927 46.8393 39.8071 46.818 39.8173C46.7966 39.8275 46.7735 39.8334 46.7499 39.8346H45.8704C45.8194 39.8333 45.7709 39.8119 45.7355 39.775C45.7175 39.7575 45.7034 39.7363 45.6941 39.713C45.6848 39.6896 45.6805 39.6645 45.6815 39.6394V38.0668C45.6877 38.021 45.7063 37.9779 45.7355 37.9421C45.7533 37.9246 45.7744 37.9108 45.7976 37.9014C45.8207 37.8921 45.8454 37.8875 45.8704 37.8879H46.1942V24.9387C46.1974 24.8915 46.2143 24.8462 46.2427 24.8085C46.276 24.7749 46.3199 24.7538 46.3668 24.7489H48.2338H48.3795C48.4297 24.744 48.4803 24.744 48.5305 24.7489L48.8057 24.8356C48.9839 24.9027 49.1512 24.9959 49.3022 25.1122C49.4529 25.2349 49.5888 25.375 49.7069 25.5297C49.9373 25.8539 50.06 26.2429 50.0576 26.6414V37.8391H50.3921C50.4173 37.8369 50.4425 37.8407 50.466 37.8501C50.4894 37.8596 50.5103 37.8743 50.527 37.8933C50.5617 37.9259 50.5829 37.9704 50.5864 38.018V39.5852C50.5888 39.611 50.5847 39.637 50.5743 39.6607C50.5639 39.6845 50.5476 39.7051 50.527 39.7207C50.5106 39.7404 50.4898 39.756 50.4665 39.7663C50.4431 39.7766 50.4176 39.7814 50.3921 39.7804H49.5342C49.4835 39.7778 49.4356 39.7564 49.3997 39.7203C49.3638 39.6842 49.3425 39.6361 49.3399 39.5852V39.1514H46.9334ZM48.8057 37.8933V26.6793C48.8074 26.5902 48.7905 26.5017 48.7561 26.4195C48.7217 26.3373 48.6706 26.2633 48.6061 26.2021C48.5434 26.1363 48.468 26.084 48.3845 26.0486C48.301 26.0131 48.2111 25.9953 48.1205 25.9961H47.4406V37.8771L48.8057 37.8933Z" fill="#505468"/>
</g>
<defs>
<clipPath id="clip0_354_48">
<rect width="104" height="80" fill="white"/>
</clipPath>
</defs>
</svg>
