<svg width="40" height="40" viewBox="0 0 40 40" fill="none" xmlns="http://www.w3.org/2000/svg">
<g clip-path="url(#clip0_390_1469)">
<path d="M30.0128 0H9.98724C4.47144 0 0 4.47144 0 9.98724V30.0128C0 35.5286 4.47144 40 9.98724 40H30.0128C35.5286 40 40 35.5286 40 30.0128V9.98724C40 4.47144 35.5286 0 30.0128 0Z" fill="url(#paint0_linear_390_1469)"/>
<path d="M30.0128 0H9.98724C4.47144 0 0 4.47144 0 9.98724V30.0128C0 35.5286 4.47144 40 9.98724 40H30.0128C35.5286 40 40 35.5286 40 30.0128V9.98724C40 4.47144 35.5286 0 30.0128 0Z" fill="url(#paint1_radial_390_1469)"/>
<path fill-rule="evenodd" clip-rule="evenodd" d="M20.3284 35.1329C17.3281 35.1329 15.9339 34.6949 13.5103 32.9429C11.9773 34.9139 7.12287 36.4542 6.91115 33.8189C6.91115 31.8407 6.47315 30.169 5.97675 28.344C5.38547 26.0956 4.71387 23.5917 4.71387 19.9637C4.71387 11.2986 11.824 4.77979 20.2481 4.77979C28.6795 4.77979 35.286 11.6198 35.286 20.0439C35.3143 28.3378 28.6222 35.0887 20.3284 35.1329ZM20.4525 12.2695C16.35 12.0578 13.1526 14.8975 12.4445 19.3505C11.8605 23.0369 12.8971 27.5264 13.7804 27.76C14.2038 27.8622 15.2696 27.0008 15.9339 26.3365C17.0323 27.0953 18.3115 27.5511 19.6423 27.6578C23.8932 27.8623 27.5255 24.626 27.8109 20.3798C27.977 16.1245 24.7041 12.5203 20.4525 12.2768V12.2695Z" fill="white"/>
</g>
<defs>
<linearGradient id="paint0_linear_390_1469" x1="4.71388" y1="30.4214" x2="40" y2="20" gradientUnits="userSpaceOnUse">
<stop stop-color="#44CCFF"/>
<stop offset="0.662" stop-color="#5533EE"/>
<stop offset="1" stop-color="#9933DD"/>
</linearGradient>
<radialGradient id="paint1_radial_390_1469" cx="0" cy="0" r="1" gradientUnits="userSpaceOnUse" gradientTransform="translate(-0.951632 -17.5674) rotate(51.356) scale(48.5407 20)">
<stop stop-color="#0000FF"/>
<stop offset="1" stop-opacity="0"/>
</radialGradient>
<clipPath id="clip0_390_1469">
<rect width="40" height="40" fill="white"/>
</clipPath>
</defs>
</svg>
