<svg width="1919" height="575" viewBox="0 0 1919 575" fill="none" xmlns="http://www.w3.org/2000/svg">
<g opacity="0.53" clip-path="url(#clip0_239_2948)">
<mask id="mask0_239_2948" style="mask-type:luminance" maskUnits="userSpaceOnUse" x="0" y="0" width="1919" height="681">
<path d="M1919 0H0V680.833H1919V0Z" fill="white"/>
</mask>
<g mask="url(#mask0_239_2948)">
<g opacity="0.6">
<path opacity="0.3" d="M-11.5804 554.696L-1.08627 543.703L90.7867 544.28L182.462 544.86L157.117 577.648C143.257 595.585 119.497 626.251 104.647 645.731C81.6787 675.048 77.9165 680.833 81.6787 680.833C84.4506 680.833 88.0147 677.941 91.9748 672.54C95.1427 668.103 118.705 637.244 144.049 604.07L190.382 543.896H282.255H374.326L370.96 550.068C365.613 560.29 309.183 657.11 298.491 674.468L294.531 680.833H300.867C304.827 680.833 307.402 679.676 308.391 677.361C309.183 675.433 326.608 644.574 347.199 608.893L384.622 543.896H476.495C528.768 543.896 568.17 544.667 568.17 545.631C568.17 547.56 519.263 672.347 516.492 677.554C514.907 680.255 515.501 680.833 519.065 680.833C522.827 680.833 524.412 678.905 527.381 670.805C529.361 665.211 537.479 643.996 545.399 623.936C553.32 603.686 563.615 577.454 568.17 565.69L576.684 543.896H668.557C754.489 543.896 760.232 544.089 760.232 547.175C760.034 549.103 754.093 579.962 746.569 615.643L733.304 680.833H738.65H743.995L752.114 638.981C756.668 615.836 762.807 584.977 765.775 570.318L770.924 543.896H863.589H956.056L955.066 608.893C954.472 644.767 953.681 675.626 953.285 677.361C952.887 679.869 953.878 680.833 957.443 680.833H962.194V612.364V543.896H1054.86H1147.72L1155.25 587.676C1159.21 611.979 1164.35 640.33 1166.33 650.939C1168.51 661.547 1170.1 672.54 1170.1 675.433C1170.1 680.062 1170.89 680.833 1176.04 680.833C1179.2 680.833 1181.98 680.447 1181.98 680.062C1181.98 679.676 1176.63 649.974 1170.1 614.101C1163.56 578.226 1158.22 547.753 1158.22 546.402C1158.22 542.738 1341.37 542.738 1342.95 546.211C1343.35 547.56 1347.11 557.781 1351.27 568.968C1355.23 580.156 1365.13 607.156 1373.25 629.144C1381.36 650.939 1388.49 671.576 1389.09 674.855C1390.08 679.676 1391.46 680.833 1395.22 680.833C1399.18 680.833 1399.98 680.062 1398.79 677.554C1390.67 656.724 1350.28 547.175 1350.28 545.824C1350.28 544.667 1383.15 543.896 1442.15 543.896H1534.02L1545.51 564.726C1559.57 590.378 1569.07 607.542 1586.29 638.402C1593.81 651.71 1601.94 666.561 1604.31 671.576C1608.08 679.676 1609.46 680.64 1615 680.833H1621.54L1615.79 671.576C1612.62 666.561 1596.98 638.981 1580.95 610.435C1564.91 581.698 1550.06 555.468 1548.08 551.996C1545.9 548.524 1544.32 545.245 1544.32 544.667C1544.32 544.28 1585.71 543.896 1636.2 543.896H1728.27L1779.14 612.364C1813.41 658.268 1831.43 680.833 1833.8 680.833C1835.78 680.833 1837.36 680.447 1837.36 680.062C1837.36 679.676 1829.45 668.876 1819.95 656.339C1804.49 636.087 1777.96 600.984 1761.13 578.034C1757.77 573.597 1750.83 564.34 1745.5 557.397L1735.98 544.86L1827.66 544.28L1919.54 543.896L1927.45 551.996C1931.81 556.624 1941.31 566.846 1948.85 574.755C1961.51 588.449 1962.1 588.834 1962.1 583.433C1961.91 578.998 1958.54 574.175 1947.26 562.218C1939.14 553.924 1932.41 546.211 1932.41 545.438C1932.41 544.667 1939.14 543.896 1947.26 543.896C1960.72 543.896 1962.1 543.509 1962.1 540.037C1962.1 536.566 1960.51 536.18 1941.91 535.795L1921.52 535.216L1872.4 483.142L1823.3 431.066L1892.81 430.488C1936.76 430.295 1962.1 429.33 1962.1 428.173C1962.1 427.016 1936.16 426.245 1890.23 426.245H1818.36L1813.6 420.844C1809.24 416.022 1771.83 376.483 1749.85 353.531C1744.71 348.132 1740.34 342.732 1740.34 341.574C1740.34 340.03 1761.92 339.452 1812.41 339.452H1884.48L1920.73 371.662C1940.72 389.407 1957.55 404.643 1957.74 405.414C1958.14 406.185 1959.33 406.956 1960.32 406.956C1964.28 406.956 1961.7 402.715 1953.79 395.77C1926.85 372.433 1893.79 342.538 1893.21 341.188C1892.81 340.224 1908.04 339.452 1927.25 339.452C1949.24 339.452 1962.1 338.681 1962.1 337.524C1962.1 336.367 1948.05 335.595 1923.69 335.595H1885.48L1858.75 312.064C1844.09 298.949 1826.47 283.326 1819.74 277.155L1807.07 266.162H1874.19H1941.31L1951.22 273.877C1962.3 282.362 1966.66 280.434 1955.97 271.755L1949.24 266.355L1955.57 266.162C1959.14 266.162 1962.1 265.197 1962.1 264.233C1962.1 263.076 1957.95 262.305 1952.6 262.305C1943.49 262.305 1942.1 261.34 1905.67 233.952L1868.05 205.407L1915.58 204.443L1963.1 203.286L1919.54 202.899C1895.58 202.515 1872.21 201.742 1867.86 200.778C1861.71 199.62 1852.21 193.642 1830.63 177.441C1814.59 165.484 1801.14 154.875 1800.53 154.104C1799.95 153.139 1835.57 152.368 1880.13 152.368C1924.29 152.561 1961.12 151.982 1961.7 151.403C1962.3 150.825 1951.41 150.439 1937.56 150.439C1916.17 150.439 1911.42 149.86 1907.06 146.967C1898.15 140.796 1895.58 140.217 1901.71 145.424L1907.65 150.246L1851.22 150.439H1794.79L1767.27 129.609L1739.75 108.972L1792.62 108.393C1843.51 108.008 1845.88 108.008 1851.82 112.058C1858.15 116.108 1858.15 116.108 1853.4 112.058L1848.84 108.008H1902.31C1935.97 108.008 1956.37 108.779 1957.16 109.936C1958.93 112.829 1962.1 112.251 1962.1 108.972C1962.1 107.429 1960.72 106.079 1958.93 106.079C1956.16 106.079 1902.31 76.184 1894.79 70.3979C1890.42 67.1189 1869.05 55.5468 1869.05 56.5111C1869.05 56.8969 1876.77 61.9115 1886.27 67.5048C1895.98 73.0979 1914 83.8988 1926.46 91.4207L1949.04 105.114L1896.96 105.693C1850.63 106.079 1844.09 105.693 1839.55 102.8C1834.78 99.9071 1834.59 99.9071 1837.17 102.8C1839.55 105.886 1836.18 106.079 1787.66 106.079H1735.4L1717.57 92.385C1707.67 84.863 1689.05 70.7835 1676.2 61.3329C1663.12 51.6893 1650.05 41.66 1647.08 38.9598C1643.91 36.2598 1638.58 32.4023 1635.01 30.4736L1628.47 26.809L1633.62 31.245C1636.6 33.7524 1641.93 37.8027 1645.49 40.5028C1649.26 43.203 1658.76 50.5321 1667.08 56.8969C1675.2 63.2616 1691.44 75.6053 1702.92 84.2845C1714.4 92.9637 1724.9 101.257 1726.29 102.993C1728.67 105.886 1724.11 106.079 1676.78 106.079H1624.52L1606.1 89.4921C1596.19 80.427 1587.88 73.6766 1588.08 74.6409C1588.27 75.4124 1594.21 81.3914 1601.54 87.7561C1624.52 107.622 1627.29 106.079 1567.88 106.079C1529.07 106.079 1515.81 105.5 1514.03 103.572C1507.69 97.014 1464.92 52.075 1458.58 45.3247C1449.68 35.681 1416.41 2.31444 1417.2 3.66455C1417.6 4.24315 1423.54 10.8008 1430.07 17.9369C1436.8 25.266 1442.35 31.6307 1442.35 32.0166C1442.35 32.5951 1447.69 38.3813 1454.23 45.1318C1479.18 70.3979 1508.68 102.8 1508.68 104.922C1508.68 105.5 1485.51 106.079 1457.2 106.079H1405.72L1382.75 76.184C1370.08 59.7898 1359.39 46.2889 1358.79 46.2889C1358.4 46.2889 1360.97 50.3392 1364.73 55.3538C1389.88 89.1062 1399.78 102.8 1399.78 104.343C1399.78 105.5 1377.6 105.886 1347.9 105.693L1296.03 105.114L1288.9 92.578C1282.96 82.3558 1258.41 39.9242 1242.76 12.7295C1240.98 9.45067 1239.4 7.71483 1239.4 8.87206C1239.4 9.8364 1250.88 32.0166 1265.14 57.8612L1290.68 105.114L1239 105.693C1210.49 105.886 1186.53 105.5 1185.74 104.729C1184.15 103.186 1163.96 49.7607 1159.8 36.6455C1158.61 32.9808 1157.42 30.8593 1156.83 31.8237C1156.43 32.9808 1161.98 49.7607 1169.11 69.0477C1176.23 88.3348 1181.98 104.729 1181.98 105.114C1181.98 105.693 1158.41 106.079 1129.7 106.079C1081.59 106.079 1077.23 105.886 1076.24 102.607C1075.65 100.871 1072.48 85.056 1069.12 67.5048C1058.42 11.3794 1056.44 2.12158 1055.06 3.08594C1054.26 3.47167 1054.46 6.75047 1055.25 10.2221C1056.25 13.5009 1057.63 20.6372 1058.22 26.0376C1058.82 31.245 1061.99 50.3392 1065.16 68.469C1068.32 86.406 1071.1 102.414 1071.1 103.572C1071.1 105.5 1059.21 106.079 1018.62 106.079H966.154V61.3329C966.154 36.8383 965.758 17.1655 965.362 17.5512C964.571 18.3226 962.986 61.5258 962.392 98.7498L962.194 106.079H909.724C880.222 106.079 857.252 105.307 857.252 104.343C857.252 103.379 859.035 94.1209 861.014 83.7059C863.193 73.0979 865.965 58.4399 867.153 51.1108C868.538 43.5888 870.123 36.8383 870.717 35.8739C871.113 35.1025 871.905 30.4736 872.3 25.6517C872.698 21.0229 873.885 14.0796 874.875 10.415C875.864 6.75047 876.062 3.85742 875.271 3.85742C873.687 3.85742 868.143 24.3016 865.172 41.4672C862.995 54.1967 853.49 98.3641 852.105 102.607C851.115 105.886 846.758 106.079 798.644 106.079C769.935 106.079 746.372 105.886 746.372 105.5C746.372 105.114 749.144 97.5926 752.51 88.5277C756.074 79.6556 761.222 65.769 764.192 57.8612C767.162 49.9535 771.122 39.9242 772.903 35.8739C776.27 27.7734 776.072 24.1088 772.706 31.4379C771.518 33.7524 768.548 40.8886 766.173 47.2533C763.598 53.618 760.628 61.3329 759.242 64.6117C757.855 67.6976 755.678 73.4838 754.291 77.1482C752.906 80.8129 749.54 88.9134 746.767 94.8923L741.818 106.079H690.733C654.499 106.079 639.451 105.5 639.451 103.957C639.451 100.1 677.268 34.7168 679.447 34.7168C680.635 34.7168 681.03 34.1381 680.437 33.3667C679.645 32.788 683.011 24.8803 687.961 16.0083C692.912 7.13622 696.476 0 695.881 0C695.089 0 682.022 21.2157 669.745 42.2387C666.378 48.2177 656.479 64.8046 647.964 79.0769L632.322 105.114L580.446 105.693C548.369 105.886 528.57 105.5 528.57 104.343C528.57 102.8 550.944 72.5194 554.31 69.4334C555.893 68.0833 563.219 57.2826 565.002 54.0039C566.388 51.3036 564.804 53.0394 554.112 65.1903C552.131 67.5048 550.35 70.012 550.152 70.9764C550.152 71.748 544.014 79.6556 536.687 88.7205L523.421 105.114L471.544 105.693C443.032 105.886 419.668 105.5 419.668 104.922C419.668 103.572 427.786 94.5066 449.17 72.3265C497.878 21.4087 525.401 -9.06491 493.721 22.5658C465.01 51.3036 421.253 96.4353 417.291 101.257L413.529 106.079H361.059C332.349 106.079 308.787 105.5 308.787 104.922C308.787 104.15 313.935 98.7498 320.271 92.7708C326.608 86.7918 328.191 85.056 323.835 88.9134C319.281 92.578 312.747 98.1711 309.183 100.871L302.451 106.079H250.97C204.837 106.079 199.688 105.693 201.866 103.186C203.252 101.45 214.736 92.578 227.409 83.3201C240.08 74.0623 250.772 65.9618 251.366 65.3831C253.347 63.0688 291.56 34.9096 293.739 34.1381C294.927 33.7524 295.52 32.788 294.927 32.2094C293.937 31.245 257.702 56.8969 240.476 70.3979C238.299 72.1337 226.617 81.0057 214.538 89.8778L192.559 106.079H140.485C92.3708 106.079 88.8067 105.886 91.1826 102.8C93.7567 99.9071 93.5588 99.9071 87.6187 102.8C82.2726 105.693 73.9565 106.079 30.198 106.079C-16.1344 105.886 -20.4905 105.693 -16.9264 102.993C-14.7484 101.45 1.88376 91.4207 20.1 80.8129C38.5142 70.205 53.3643 61.1399 53.3643 60.7542C53.3643 59.597 37.3262 68.0833 30.198 72.7122C27.228 74.8339 14.1599 82.3558 1.28975 89.6849C-11.3824 96.821 -21.8766 103.957 -21.8766 105.307C-21.8766 107.429 -12.3724 108.008 28.812 108.008C65.0464 108.008 78.9066 108.586 77.9165 110.129C76.9266 111.672 77.7186 111.672 80.6886 110.129C83.4606 108.779 102.667 108.008 136.723 108.008C186.422 108.008 188.599 108.2 184.837 111.479C182.858 113.215 170.185 122.859 156.919 132.695L132.565 150.439H77.1245C46.6322 150.439 21.684 149.86 21.684 149.282C21.684 148.51 23.2679 146.775 25.05 145.232C27.0301 143.689 25.446 144.267 21.486 146.389C15.7439 149.668 10.3978 150.439 -4.25431 150.825L-22.8665 151.211L-6.23433 152.175L10.5959 153.332L-5.64032 163.747C-14.5504 169.534 -21.8766 174.548 -21.8766 174.933C-21.8766 176.09 -13.1644 171.269 1.28975 161.625L15.7439 152.368L71.9765 152.754L128.407 153.332L97.3208 176.477L66.2344 199.62L51.3843 200.971C43.2662 201.55 23.07 202.515 6.83381 202.708L-22.8665 203.286L17.7239 204.443L58.3144 205.407L23.6639 231.252C4.65579 245.524 -13.3624 258.446 -16.3325 260.183C-19.5004 261.918 -21.8766 265.004 -21.8766 267.126C-21.8766 270.019 -21.2825 270.212 -19.5004 268.476C-17.7184 266.739 0.497747 266.162 50.1963 266.162H117.517L103.855 278.312C96.1328 285.063 78.1146 300.686 63.6603 313.03L37.3262 335.595H7.82382C-10.5904 335.595 -21.8766 336.367 -21.8766 337.524C-21.8766 338.681 -11.9764 339.452 3.86378 339.452C17.922 339.452 29.6041 340.224 29.6041 340.995C29.6041 341.767 18.1199 352.567 3.86378 364.718C-10.1944 376.677 -21.6785 387.863 -21.8766 389.213C-21.8766 391.913 -16.3325 387.477 19.704 356.039L38.5142 339.646L111.379 339.452C169.196 339.452 184.046 340.03 182.858 341.767C181.867 343.116 163.453 362.789 141.871 385.163L102.469 426.245H40.2962C0.695745 426.245 -21.8766 427.016 -21.8766 428.173C-21.8766 429.33 0.29974 430.295 37.9201 430.488L97.9148 431.066L62.4724 467.712C-9.79837 542.159 -3.0663 536.18 -12.9664 536.18C-20.4905 536.18 -21.8766 536.76 -21.8766 540.037C-21.8766 542.931 -20.4905 543.896 -16.5304 543.896H-11.1844L-16.5304 549.296C-19.6985 552.574 -21.8766 556.817 -21.8766 560.29C-21.8766 565.497 -21.6785 565.497 -11.5804 554.696ZM23.6639 235.88C40.4941 223.343 57.1264 211.193 60.6903 208.687C66.8284 204.443 67.4225 204.443 127.615 204.828L188.204 205.407L155.335 233.759L122.467 262.305H55.7404C15.7439 262.305 -9.99636 261.532 -9.00635 260.568C-7.81834 259.603 6.83381 248.417 23.6639 235.88ZM35.9401 504.743C51.3843 488.734 73.7585 465.204 85.6386 452.667L107.419 430.102H188.204C232.754 430.102 269.186 430.681 269.186 431.645C269.186 432.416 257.109 448.617 242.259 467.712C227.409 486.805 209.39 509.951 202.262 519.208L189.391 536.18H98.7068C48.6122 536.18 7.82382 535.795 7.82382 535.216C7.82382 534.638 20.496 520.944 35.9401 504.743ZM93.9548 290.849L121.675 266.355L188.599 266.162C255.128 266.162 255.524 266.162 252.753 270.019C251.168 272.14 236.516 287.763 219.885 304.736L189.589 335.595H117.121H44.4542L55.3444 325.373C61.2844 319.973 78.7085 304.35 93.9548 290.849ZM104.845 174.933C138.901 149.475 128.011 152.368 192.361 152.368H248.396L237.507 162.589C216.32 182.071 197.313 197.692 192.164 200.007C186.818 202.322 81.8766 203.479 75.7385 201.164C72.1746 199.814 74.7486 197.5 104.845 174.933ZM157.117 378.605L194.54 339.452H266.414C313.737 339.452 338.487 340.03 338.487 341.381C338.487 342.538 324.033 362.018 306.608 384.777L274.731 426.245H193.351H112.171L115.933 422.001C117.913 419.493 136.525 400.013 157.117 378.605ZM161.078 232.794L193.551 204.443H254.138C287.403 204.443 314.728 205.021 314.728 205.794C314.528 206.758 302.253 219.68 287.403 234.723L260.277 262.305H204.837C131.179 262.498 128.605 262.498 128.605 261.725C128.605 261.34 143.257 248.224 161.078 232.794ZM153.751 138.288C161.276 132.695 173.354 123.437 180.68 118.037L194.144 108.008H247.01H299.876L290.967 116.301C286.017 120.737 275.325 130.188 267.207 137.324L252.357 150.439H196.321C165.632 150.439 140.485 150.053 140.485 149.475C140.485 149.089 146.425 144.074 153.751 138.288ZM237.705 481.984L277.7 430.102H358.485C408.184 430.102 439.469 430.873 439.469 431.837C439.469 432.994 436.499 438.781 432.935 444.953C429.173 451.125 415.708 474.075 402.839 496.063L379.474 536.18H288.788C238.695 536.18 197.906 535.602 197.906 535.023C197.906 534.445 215.925 510.529 237.705 481.984ZM231.566 300.493L263.247 267.126L328.785 266.162C364.821 265.584 395.115 265.584 395.909 266.162C396.898 266.739 385.81 282.362 371.554 300.878L345.418 334.631L272.553 335.209C232.556 335.402 199.885 335.209 199.885 334.631C199.885 334.245 214.142 318.815 231.566 300.493ZM237.11 166.255L253.347 152.368H309.975H366.604L350.763 169.148C342.051 178.598 331.161 189.592 326.806 193.835L318.688 201.55L264.633 201.935C235.13 202.128 208.203 201.742 205.034 201.164L199.094 200.007L209.984 190.171C215.925 184.77 228.2 173.969 237.11 166.255ZM289.779 119.966L303.44 108.008H356.902H410.561L399.473 119.001C393.334 125.173 384.225 134.817 379.078 140.217L369.573 150.439H312.945H256.317L266.216 141.181C271.761 136.167 282.255 126.716 289.779 119.966ZM306.213 222.188L323.637 204.25L384.622 204.828L445.804 205.407L423.628 233.759L401.65 262.111L338.685 262.689C304.036 263.076 274.335 263.076 272.355 262.689C268.791 261.918 274.731 254.782 306.213 222.188ZM314.926 381.498C331.557 359.896 346.011 341.767 347.199 340.995C349.971 339.066 492.929 339.066 492.929 340.803C492.929 341.767 482.039 361.054 468.574 383.813L444.419 425.28L363.436 425.858C292.75 426.245 282.651 425.858 283.641 423.352C284.432 421.808 298.491 402.906 314.926 381.498ZM354.723 171.076L373.137 152.175L429.964 152.754L486.79 153.332L473.129 170.691C465.605 180.141 456.694 191.135 453.526 194.799L447.983 201.55L391.155 201.935C359.872 202.128 332.944 201.742 331.557 201.164C327.795 199.814 330.963 195.57 354.723 171.076ZM377.692 299.913L403.037 267.126L469.763 266.548C506.393 266.355 536.49 266.739 536.49 267.512C536.292 268.476 527.58 283.713 517.086 301.842L497.878 334.631L425.015 335.209C385.018 335.402 352.348 335.016 352.348 334.052C352.348 333.281 363.832 317.851 377.692 299.913ZM398.086 125.559L415.114 108.008L467.782 108.393L520.452 108.972L504.413 129.609L488.573 150.439H432.143C377.89 150.439 375.909 150.246 378.484 146.967C379.869 144.846 388.78 135.395 398.086 125.559ZM419.272 484.106C431.944 462.311 444.023 441.288 446.2 437.431L450.358 430.102H532.134H613.908L612.523 434.345C611.929 436.853 606.978 449.581 601.633 462.889C596.286 476.197 587.772 497.798 582.425 511.108L572.922 535.216L481.445 535.795L389.77 536.18L393.136 530.008C394.917 526.538 406.799 505.9 419.272 484.106ZM430.558 230.673L450.358 204.636L511.343 204.443C560.051 204.443 572.328 205.021 571.735 206.95C571.337 208.3 564.011 221.223 555.497 235.88L539.856 262.111L480.257 262.689C411.55 263.269 407.195 263.076 409.174 259.412C410.165 258.061 419.668 245.138 430.558 230.673ZM478.673 380.92L502.236 340.417L574.11 339.839C613.71 339.646 646.777 340.03 647.568 340.803C648.36 341.767 641.629 361.054 632.718 383.813L616.483 425.28L535.896 425.858C472.138 426.245 455.309 425.858 455.309 423.93C455.309 422.579 465.803 403.099 478.673 380.92ZM472.733 175.513L490.156 153.332L546.984 152.754C578.267 152.561 603.81 152.754 603.81 153.139C603.81 154.682 579.456 195.763 576.486 199.042C573.912 202.128 568.17 202.322 518.867 202.322C466.991 202.322 455.111 201.742 455.309 198.849C455.507 198.271 463.229 187.663 472.733 175.513ZM510.156 126.716L524.808 108.008H577.08C605.988 108.008 629.55 108.586 629.55 109.165C629.55 109.743 624.205 119.194 617.472 130.381L605.395 150.439H548.963C504.413 150.439 492.929 149.86 494.116 147.932C494.91 146.775 502.236 137.131 510.156 126.716ZM525.797 299.529L544.805 266.162H611.929H679.051L673.704 280.049C670.736 287.763 664.795 303.193 660.241 314.379L652.122 334.631L579.456 335.209C539.46 335.402 506.789 335.016 506.789 334.245C506.789 333.474 515.303 317.851 525.797 299.529ZM557.082 245.331C561.636 237.231 567.773 226.431 570.545 221.608C581.634 202.322 572.922 204.443 641.827 204.443C675.487 204.443 702.811 204.828 702.811 205.214C702.811 205.794 685.784 249.768 682.022 258.832C680.635 262.111 675.685 262.305 614.502 262.305C578.069 262.305 548.369 261.918 548.369 261.34C548.369 260.761 552.329 253.625 557.082 245.331ZM598.662 486.612C608.959 459.803 618.264 436.273 619.651 434.152C621.828 430.101 622.818 430.102 702.811 430.102C766.569 430.102 783.992 430.681 783.992 432.416C783.794 433.767 779.24 457.49 773.499 485.07L763.202 535.216L671.527 535.795C621.234 535.987 580.05 535.987 580.05 535.602C580.05 535.216 588.366 513.228 598.662 486.612ZM597.077 175.319L610.146 152.368H666.378C707.762 152.368 722.612 152.946 722.612 154.682C722.612 155.839 718.85 166.448 714.295 178.019C708.356 192.484 704.594 199.62 701.821 200.778C697.663 202.322 588.168 202.899 585.593 201.357C583.021 199.814 583.416 199.429 597.077 175.319ZM624.798 127.295L635.886 108.008H688.159C728.749 108.008 740.432 108.586 740.432 110.322C740.432 111.672 737.066 121.123 732.907 131.152L725.383 149.475L669.547 150.053C633.114 150.246 613.71 149.86 613.71 148.51C613.71 147.546 618.66 137.902 624.798 127.295ZM639.648 380.92L655.884 339.452H728.749H801.812V343.696C801.812 346.202 798.248 365.104 793.892 385.741C789.536 406.378 785.972 423.93 785.972 424.701C785.972 425.473 749.342 426.245 704.792 426.245C651.528 426.245 623.611 425.665 623.611 424.316C623.611 423.159 630.937 403.679 639.648 380.92ZM671.725 297.985L684.001 267.126L750.727 266.548C796.664 266.355 817.653 266.739 817.653 268.09C817.653 270.019 807.159 320.937 804.782 331.159L803.793 335.595H731.521C664.003 335.595 659.25 335.402 659.448 332.123C659.448 330.388 664.993 314.958 671.725 297.985ZM697.466 231.445L707.762 205.407L768.746 204.828C828.741 204.443 829.533 204.443 829.533 208.3C829.533 210.422 827.354 223.152 824.582 236.46C821.811 249.768 819.632 261.147 819.632 261.532C819.632 261.918 789.734 262.305 753.302 262.305C701.425 262.305 686.971 261.725 687.169 259.797C687.169 258.639 691.921 245.718 697.466 231.445ZM719.246 175.513L727.561 153.332L784.587 152.754C815.87 152.561 841.413 152.946 841.413 153.718C841.413 157.961 832.701 196.728 831.314 198.849C829.929 200.971 818.841 201.55 774.092 201.742C720.631 202.128 710.731 201.55 710.731 198.849C710.731 198.271 714.493 187.663 719.246 175.513ZM737.858 126.909L744.986 108.008H798.05H851.115L849.926 115.144C849.135 119.194 847.353 128.452 845.57 135.974L842.402 149.475L786.368 150.053C744.788 150.439 730.532 149.86 730.532 148.318C730.532 146.967 733.7 137.517 737.858 126.909ZM783.002 481.984C787.951 457.297 792.507 435.309 793.1 433.381C794.09 430.295 799.635 430.102 875.073 430.102C937.839 430.102 956.056 430.681 956.649 432.416C957.047 433.767 957.047 457.682 956.649 485.455L955.858 536.18H864.974H774.092V531.745C774.092 529.237 778.052 506.865 783.002 481.984ZM802.803 381.498C806.763 362.018 810.327 344.66 810.921 342.732C811.91 339.646 817.256 339.452 885.171 339.452H958.234L957.838 382.269L957.245 425.28L876.46 425.858L795.873 426.245V421.615C795.873 418.915 799.039 400.978 802.803 381.498ZM819.632 297.021C822.801 280.627 825.573 266.933 825.573 266.548C825.573 266.355 855.867 266.162 892.893 266.162H960.213V280.241C960.213 288.149 959.62 303.772 958.828 314.958L957.64 335.595H885.567H813.692V331.159C813.692 328.844 816.464 313.415 819.632 297.021ZM831.314 237.038C833.295 227.009 835.67 215.629 836.265 211.579L837.651 204.443H898.834H960.213V233.374V262.305H893.883C830.127 262.305 827.552 262.111 827.552 258.639C827.552 256.711 829.137 246.875 831.314 237.038ZM843.591 173.005L847.947 152.368H905.367H962.788L961.402 175.897C960.609 190.942 959.224 200.007 957.64 200.971C955.066 202.708 846.758 202.899 842.204 201.164C838.64 199.814 838.64 197.692 843.591 173.005ZM852.897 125.366L856.461 108.972L909.328 108.393L962.194 108.008V129.223V150.439H905.764H849.333V146.003C849.53 143.689 851.115 134.431 852.897 125.366ZM963.58 468.097L964.769 430.102H1046.35H1127.72L1136.24 479.669C1140.99 507.056 1144.95 530.779 1144.95 532.323C1145.35 534.831 1134.06 535.216 1056.25 535.795C1007.14 535.987 965.956 535.795 964.571 535.216C961.798 534.252 961.6 523.452 963.58 468.097ZM1037.24 339.839C1077.03 339.646 1110.1 340.03 1110.89 340.803C1112.87 342.925 1126.73 422.579 1125.35 424.701C1124.75 425.473 1088.32 426.245 1044.17 426.245H964.173L964.571 383.233L965.164 340.417L1037.24 339.839ZM1031.49 266.162H1098.82L1099.8 270.405C1101.39 277.348 1110.69 331.352 1110.69 333.474C1110.69 335.016 1087.33 335.595 1037.43 335.595H964.173V300.878V266.162H1031.49ZM965.362 210.422L966.55 204.443H1026.74C1063.97 204.443 1087.13 205.214 1087.93 206.372C1088.52 207.336 1090.9 218.522 1092.88 230.866C1095.05 243.403 1097.23 255.553 1097.83 257.868L1098.82 262.305H1031.49H964.173V239.353C964.173 226.816 964.769 213.701 965.362 210.422ZM1022.39 152.368C1074.26 152.368 1078.82 152.561 1079.81 155.647C1080.4 157.575 1082.38 168.183 1084.16 178.983C1086.94 196.15 1087.13 199.236 1084.76 200.778C1081.79 202.515 973.876 203.093 969.124 201.357C966.748 200.393 966.154 195.57 966.154 176.284V152.368H1022.39ZM1019.02 108.393L1072.09 108.972L1074.26 121.508C1075.45 128.452 1077.03 137.71 1077.83 142.146L1079.02 150.439H1022.58H966.154V129.223V108.008L1019.02 108.393ZM1130.1 108.008H1183.36L1189.9 126.716C1193.46 137.131 1196.83 146.775 1197.42 147.932C1198.01 149.86 1186.13 150.439 1141.78 150.439H1085.15L1083.17 140.217C1079.61 124.209 1077.43 113.022 1077.23 110.322C1077.03 108.586 1088.91 108.008 1130.1 108.008ZM1142.18 152.368H1199.2L1207.72 175.706C1214.45 194.414 1215.64 199.429 1213.46 200.586C1210.09 202.708 1097.63 202.128 1095.65 200.007C1094.66 199.236 1092.08 188.434 1089.71 175.897C1087.33 163.554 1085.15 153.139 1085.15 152.754C1084.95 152.561 1110.69 152.368 1142.18 152.368ZM1158.02 204.828L1218.21 205.407L1227.71 231.445C1233.06 245.718 1237.42 258.446 1237.42 259.797C1237.42 261.918 1224.55 262.305 1171.48 261.918L1105.75 261.34L1103.17 248.803C1097.63 221.415 1095.45 207.336 1096.84 205.794C1097.43 205.021 1125.15 204.636 1158.02 204.828ZM1173.66 266.162H1240.59L1252.27 298.371C1258.6 316.307 1264.15 331.93 1264.74 333.087C1265.34 335.016 1250.09 335.595 1192.27 335.595H1119.01L1115.65 316.694C1113.67 306.472 1111.09 291.813 1109.71 284.484C1108.32 276.963 1106.93 269.825 1106.93 268.476C1106.74 266.739 1121.39 266.162 1173.66 266.162ZM1194.65 340.417H1267.71L1282.17 379.956C1290.28 401.75 1296.82 421.037 1296.82 422.965C1296.82 426.051 1292.07 426.245 1216.03 425.858L1135.45 425.28L1128.12 386.705C1124.16 365.49 1120.99 346.395 1121.19 344.274C1121.59 340.417 1122.97 340.417 1194.65 340.417ZM1218.41 430.102C1294.64 430.102 1300.38 430.295 1301.77 433.381C1304.54 440.323 1338.4 534.638 1338.4 535.409C1338.4 535.795 1297.41 536.18 1247.32 536.18H1156.24L1155.25 531.745C1153.86 526.344 1136.83 435.695 1136.63 432.416C1136.44 430.681 1154.06 430.102 1218.41 430.102ZM1240.19 108.008H1292.46L1303.55 128.259C1309.69 139.253 1314.64 148.896 1314.64 149.475C1314.64 150.053 1289.29 150.439 1258.41 150.439H1202.17L1196.23 134.431C1193.06 125.752 1189.9 117.265 1189.3 115.722C1186.33 108.008 1185.94 108.008 1240.19 108.008ZM1259.99 152.368C1302.56 152.368 1316.62 152.946 1318 154.682C1319.19 156.032 1325.13 166.64 1331.27 178.212C1339.59 193.449 1341.96 199.62 1340.18 200.586C1338.99 201.55 1312.85 202.322 1282.17 202.322C1239.4 202.515 1225.74 202.128 1223.16 200.2C1220.39 198.271 1204.15 159.312 1203.95 153.718C1203.76 152.946 1229.1 152.368 1259.99 152.368ZM1284.74 204.443H1345.72L1359.78 229.902C1367.5 243.981 1374.43 257.097 1375.23 258.832C1376.41 262.111 1372.45 262.305 1310.28 262.305H1243.95L1234.05 235.689C1228.51 221.223 1223.95 208.107 1223.75 206.758C1223.56 205.021 1237.02 204.443 1284.74 204.443ZM1312.46 266.162H1379.58L1393.44 290.656C1410.47 320.937 1415.62 330.966 1415.62 333.667C1415.62 335.016 1392.06 335.595 1343.55 335.595H1271.47L1262.96 312.837C1258.41 300.493 1252.47 285.063 1250.09 278.698C1247.52 272.333 1245.53 266.933 1245.34 266.548C1245.34 266.355 1275.63 266.162 1312.46 266.162ZM1347.31 339.452H1419.58L1424.13 346.589C1430.27 356.424 1467.1 423.352 1467.1 425.087C1467.1 425.665 1430.67 426.245 1386.12 426.245H1305.13L1290.28 386.128C1281.97 364.14 1275.23 344.66 1275.23 342.732C1275.04 339.646 1279.79 339.452 1347.31 339.452ZM1351.07 108.008H1403.34L1417.6 126.716C1425.52 137.131 1432.25 146.582 1432.84 147.932C1434.43 151.596 1323.94 151.596 1320.97 147.932C1318 144.46 1298.8 111.286 1298.8 109.358C1298.8 108.586 1322.36 108.008 1351.07 108.008ZM1471.06 431.452C1471.85 432.416 1476.8 440.71 1481.95 450.352C1487.1 459.803 1499.18 481.598 1508.68 498.571C1517.99 515.543 1526.3 530.973 1527.09 532.901C1528.28 535.987 1523.53 536.18 1437 535.795L1345.72 535.216L1343.15 528.466C1341.76 524.801 1333.25 501.271 1323.94 476.39L1307.11 431.066L1388.49 430.488C1433.24 430.295 1470.46 430.681 1471.06 431.452ZM1379.58 152.368H1436.8L1454.03 175.513C1463.54 188.434 1470.66 199.62 1470.07 200.393C1468.29 203.286 1358 202.899 1352.65 200.2C1349.49 198.465 1323.75 157.768 1322.56 152.754C1322.56 152.561 1348.3 152.368 1379.58 152.368ZM1414.63 204.443H1474.82L1486.5 219.293C1502.15 239.546 1516.6 259.603 1516.6 261.147C1516.6 261.725 1486.9 262.305 1450.67 262.305H1384.93L1369.68 235.689C1361.37 221.223 1354.44 208.107 1354.24 206.758C1354.24 205.021 1367.5 204.443 1414.63 204.443ZM1454.63 266.162L1521.55 266.355L1532.44 281.013C1538.38 289.114 1548.28 302.421 1554.42 310.329C1560.56 318.429 1567.09 327.495 1568.87 330.388L1572.44 335.595H1499.37H1426.31L1415.62 316.694C1404.33 297.021 1388.1 267.512 1387.9 266.548C1387.9 266.355 1417.99 266.162 1454.63 266.162ZM1524.12 119.966C1541.55 138.095 1550.26 147.932 1550.26 149.282C1550.26 149.86 1527.29 150.632 1499.18 151.018L1448.29 151.403L1500.96 151.982L1553.82 152.368L1563.53 162.398C1588.08 187.663 1597.98 199.042 1596.98 200.2C1595.21 201.742 1492.05 203.093 1483.73 201.55C1477.59 200.586 1474.42 197.307 1458.98 176.863C1443.73 156.804 1441.56 153.332 1444.72 152.175C1447.69 151.211 1447.5 150.825 1443.34 150.246C1439.78 149.668 1434.23 143.881 1422.94 129.223L1407.3 108.972L1459.97 108.393L1512.64 108.008L1524.12 119.966ZM1502.54 339.452H1575.8L1606.5 380.34C1623.52 402.906 1637.39 422.579 1637.39 423.736C1637.39 425.665 1620.16 426.245 1557.39 426.245H1477.2L1462.94 400.593C1455.02 386.705 1444.33 367.804 1438.98 358.739C1433.83 349.674 1429.48 341.767 1429.48 340.803C1429.48 340.03 1462.35 339.452 1502.54 339.452ZM1562.54 430.488L1644.31 431.066L1682.32 482.177C1703.32 510.335 1720.54 533.865 1720.54 534.638C1720.54 535.602 1679.76 536.18 1629.85 536.18H1539.37L1533.63 525.958C1530.46 520.557 1523.73 508.6 1518.58 499.535C1498.38 464.433 1480.96 432.994 1480.96 431.452C1480.96 430.681 1517.79 430.295 1562.54 430.488ZM1610.65 212.544C1626.49 229.324 1650.24 255.168 1652.83 258.639C1655.41 262.111 1653.22 262.305 1589.27 262.305H1523.33L1501.95 233.759L1480.76 205.407L1541.75 204.828L1602.73 204.25L1610.65 212.544ZM1630.06 113.022C1633.62 115.915 1643.91 125.173 1653.03 133.466C1665.89 145.424 1669.05 149.282 1666.89 150.632C1664.91 151.789 1665.49 152.368 1669.45 152.368C1673.42 152.368 1679.16 156.418 1691.24 167.219C1700.15 175.513 1712.03 186.312 1717.57 191.328L1727.27 200.2L1718.17 201.55C1713.21 202.322 1686.09 202.515 1658.18 202.128L1607.08 201.55L1584.71 178.405C1572.24 165.675 1562.14 154.682 1562.14 153.911C1562.14 153.139 1585.11 152.175 1613.02 151.789L1664.11 151.403L1611.25 150.825L1558.58 150.439L1538.58 129.609L1518.58 108.972L1571.25 108.393L1623.91 108.008L1630.06 113.022ZM1593.42 266.162H1660.55L1691.05 298.949C1707.67 316.887 1721.73 332.51 1722.13 333.667C1722.71 335.016 1699.95 335.595 1650.64 335.595H1578.57L1558.58 308.978C1547.69 294.514 1536 279.083 1532.64 274.841C1529.47 270.598 1526.7 266.933 1526.7 266.548C1526.5 266.355 1556.6 266.162 1593.42 266.162ZM1655.99 339.452H1728.07L1751.63 363.947C1764.5 377.641 1782.72 396.927 1791.83 406.956L1808.66 425.28L1729.46 425.858C1685.89 426.051 1649.26 425.858 1648.08 425.473C1645.7 424.508 1637.39 414.094 1603.92 369.541C1593.02 354.882 1583.92 342.152 1583.92 341.188C1583.92 340.224 1615.21 339.452 1655.99 339.452ZM1672.03 204.443H1732.42L1747.67 217.751C1756.19 225.08 1770.64 238.002 1779.94 246.489L1796.77 262.111L1730.25 262.305H1663.91L1637.78 234.338C1623.33 218.909 1611.64 205.985 1611.64 205.407C1611.64 204.828 1638.77 204.443 1672.03 204.443ZM1681.74 108.008H1734L1759.35 127.487C1773.41 138.095 1785.1 147.739 1785.49 148.703C1785.89 149.668 1764.5 150.439 1731.44 150.439C1681.53 150.439 1676.2 150.053 1672.03 146.967C1661.93 139.06 1629.46 110.129 1629.46 108.779C1629.46 108.393 1653.03 108.008 1681.74 108.008ZM1732.23 430.102H1813.2L1834.78 452.86C1888.84 510.142 1910.62 533.865 1910.62 535.216C1910.62 535.795 1869.84 536.18 1819.95 536.18H1729.25L1698.76 495.292C1681.93 472.92 1664.3 449.581 1659.76 443.796C1655.2 437.817 1651.43 432.416 1651.43 431.452C1651.24 430.681 1687.67 430.102 1732.23 430.102ZM1735.4 266.162H1801.53L1840.34 300.107C1861.52 318.815 1878.94 334.438 1878.94 334.823C1878.94 335.209 1846.07 335.595 1806.08 335.595H1733.21L1701.13 301.65C1683.51 282.942 1669.05 267.319 1669.05 266.933C1669.05 266.548 1698.96 266.162 1735.4 266.162ZM1822.91 175.897C1853.2 198.849 1853.8 199.429 1848.05 200.971C1844.88 201.742 1818.16 202.322 1788.85 202.128C1744.71 201.55 1734.6 200.971 1731.04 198.656C1728.86 196.921 1715.98 186.121 1702.92 174.548L1678.76 153.332L1735.4 152.754L1791.83 152.368L1822.91 175.897ZM1799.14 204.443H1860.13L1895.77 231.445C1915.37 246.295 1932.2 259.412 1933.2 260.376C1934.58 261.725 1912.02 262.305 1868.84 262.305H1802.51L1770.44 234.338C1752.81 218.909 1738.36 205.794 1738.36 205.407C1738.36 204.828 1765.69 204.443 1799.14 204.443Z" fill="url(#paint0_linear_239_2948)"/>
</g>
</g>
</g>
<defs>
<linearGradient id="paint0_linear_239_2948" x1="837.825" y1="660.424" x2="857.412" y2="-166.535" gradientUnits="userSpaceOnUse">
<stop stop-color="#505468"/>
<stop offset="1" stop-color="#505468" stop-opacity="0"/>
</linearGradient>
<clipPath id="clip0_239_2948">
<rect width="1919" height="680.833" fill="white"/>
</clipPath>
</defs>
</svg>
