<svg width="68" height="40" viewBox="0 0 68 40" fill="none" xmlns="http://www.w3.org/2000/svg">
<g clip-path="url(#clip0_390_1512)">
<path d="M37.8212 14.1149C37.7674 12.6146 37.3244 11.1524 36.5339 9.86569C35.7434 8.579 34.6315 7.51008 33.3027 6.7595L23.4372 1.18631C22.0614 0.409141 20.5006 0 18.912 0C17.3232 0 15.7626 0.409141 14.3867 1.18631L4.52522 6.7595C3.14959 7.53655 2.00723 8.65415 1.2129 10C0.41857 11.3458 0.000249901 12.8725 0 14.4265V25.5729C1.49847e-05 27.1272 0.418215 28.6542 1.21256 30.0003C2.0069 31.3464 3.1494 32.4642 4.52522 33.2413L14.3907 38.8145C15.7667 39.5912 17.3274 40 18.916 40C20.5046 40 22.0652 39.5912 23.4411 38.8145L33.3067 33.2413C34.6826 32.4642 35.825 31.3464 36.6194 30.0003C37.4138 28.6542 37.8319 27.1272 37.8319 25.5729V14.4265C37.8279 14.3271 37.8265 14.2183 37.8212 14.1149Z" fill="url(#paint0_linear_390_1512)"/>
<path d="M44.4593 25.924C44.3528 25.924 44.2507 25.8825 44.1754 25.8089C44.1001 25.7352 44.0578 25.6353 44.0578 25.5311V14.7933C44.0557 14.7385 44.065 14.6838 44.0853 14.6328C44.1055 14.5816 44.1363 14.5351 44.1755 14.4961C44.2129 14.4589 44.2575 14.4295 44.3067 14.4097C44.3559 14.3899 44.4088 14.3801 44.462 14.3808H48.9818C49.7665 14.364 50.5466 14.5016 51.2759 14.7855C51.8977 15.0305 52.4275 15.4565 52.7937 16.0059C53.1506 16.5506 53.329 17.2298 53.329 18.0435C53.329 18.8571 53.1506 19.5362 52.7937 20.081C52.4245 20.6221 51.8949 21.0398 51.2759 21.2779C50.5451 21.5551 49.7655 21.6885 48.9818 21.6708H46.4696V25.5325C46.4715 25.6362 46.4322 25.7367 46.3599 25.8126C46.322 25.8515 46.2758 25.8819 46.2248 25.9018C46.1737 25.9217 46.119 25.9306 46.0641 25.9279L44.4593 25.924ZM46.4335 19.8361H48.8948C49.5462 19.8361 50.0468 19.6847 50.3965 19.3818C50.7464 19.0788 50.9204 18.6305 50.9186 18.0369C50.9415 17.5485 50.7659 17.0711 50.43 16.7091C50.1034 16.3738 49.5917 16.2062 48.8948 16.2062H46.4335V19.8361Z" fill="#3C4651"/>
<path d="M60.614 26.4523C60.5594 26.455 60.5047 26.4461 60.4539 26.4263C60.4031 26.4063 60.3573 26.3759 60.3196 26.3371C60.2465 26.2616 60.2071 26.1609 60.2098 26.0569V24.8351C58.5341 24.8351 57.2403 24.475 56.3284 23.7548C55.4165 23.0346 54.8994 21.9538 54.7771 20.5125C54.7641 20.3894 54.7583 20.2656 54.7597 20.1419C54.7597 19.9926 54.7597 19.8446 54.7678 19.6954C54.7758 19.5461 54.7771 19.4243 54.7771 19.3248C54.8334 18.3645 55.0863 17.5644 55.536 16.9245C55.9997 16.2694 56.6518 15.7639 57.4098 15.4723C58.3012 15.1308 59.2528 14.9652 60.2098 14.9852V13.9454C60.2062 13.8929 60.2142 13.8403 60.2331 13.7911C60.2521 13.7419 60.2815 13.6972 60.3195 13.6599C60.3575 13.6227 60.4033 13.5939 60.4536 13.5754C60.5039 13.5569 60.5577 13.5491 60.6114 13.5526H62.1291C62.2408 13.5482 62.3499 13.5867 62.4329 13.6599C62.4725 13.6969 62.5035 13.7418 62.5238 13.7915C62.544 13.8412 62.5532 13.8946 62.5507 13.948V14.9826C63.5048 14.962 64.4534 15.1276 65.3413 15.4696C66.0974 15.7643 66.7488 16.2692 67.2151 16.9219C67.6702 17.5644 67.9204 18.3645 67.966 19.3222C67.9888 19.5526 67.9994 19.7517 67.9994 19.9167C67.9994 20.0817 67.9888 20.2794 67.966 20.5099C67.8535 21.9512 67.3418 23.0319 66.4308 23.7522C65.5198 24.4724 64.226 24.8325 62.5494 24.8325V26.0543C62.5504 26.1064 62.5404 26.1581 62.5202 26.2063C62.4999 26.2546 62.4698 26.2982 62.4316 26.3345C62.3917 26.3729 62.3441 26.403 62.2918 26.4229C62.2396 26.4426 62.1837 26.4518 62.1278 26.4497L60.614 26.4523ZM60.2125 22.9377V16.8669C59.3006 16.8669 58.5868 17.0673 58.071 17.4679C57.5553 17.8686 57.2572 18.5094 57.1769 19.3903V20.43C57.2332 21.303 57.5227 21.9381 58.0455 22.3353C58.5684 22.7325 59.2899 22.9333 60.2098 22.9377H60.2125ZM62.54 22.9377C63.4608 22.9377 64.1859 22.7369 64.7149 22.3353C65.244 21.9337 65.5309 21.2986 65.5755 20.43C65.587 20.3178 65.5923 20.2049 65.5916 20.0922V19.7124C65.5925 19.6049 65.5872 19.4973 65.5755 19.3903C65.4863 18.5112 65.1851 17.8704 64.6721 17.4679C64.159 17.0655 63.4484 16.8651 62.54 16.8669V22.9377Z" fill="#3C4651"/>
<path d="M37.8216 14.1148C35.4967 13.7796 31.4507 13.502 26.2375 14.014C25.4104 14.0755 23.8404 14.5757 23.6798 16.0214C23.5071 15.7719 23.3138 15.5367 23.1016 15.3183C21.7899 14.0087 20.3739 13.4365 18.7236 13.9183C18.4974 13.9799 18.2337 14.0493 18.0892 13.9642C17.8295 13.778 17.5183 13.673 17.1964 13.663C16.2689 13.6748 15.3628 14.5129 14.4233 16.2283C13.1732 18.186 12.8051 20.7749 13.4154 22.8858C12.8318 23.4567 12.2991 23.8613 11.8294 24.0879C11.3001 24.3439 10.7173 24.4761 10.1269 24.4742H10.0801C9.00931 24.4742 8.15676 24.1271 7.45139 23.4122C6.74603 22.6972 6.35255 21.6365 6.3057 20.2812C6.25752 19.1485 6.48505 18.1572 6.98294 17.3204C7.1483 17.039 7.34393 16.7756 7.56649 16.5347C7.98846 16.0637 8.51044 15.6883 9.09601 15.435C9.68159 15.1817 10.3166 15.0565 10.9567 15.0681C11.309 15.0628 11.6607 15.0944 12.006 15.1623C12.2888 15.226 12.5778 15.2597 12.868 15.2632C12.9536 15.2694 13.0395 15.2547 13.1178 15.2201C13.1962 15.1856 13.2644 15.1324 13.3163 15.0655C13.412 14.9246 13.4559 14.756 13.4408 14.5875C13.438 14.5175 13.4231 14.4484 13.3967 14.3833C13.3909 14.3666 13.3837 14.3503 13.3752 14.3348C13.354 14.2887 13.328 14.2448 13.2976 14.2039L13.2655 14.1607C13.2575 14.1515 13.2494 14.141 13.2401 14.1318C13.2307 14.1227 13.1959 14.0847 13.1718 14.0611L13.1249 14.0192C13.0838 13.9818 13.0389 13.9485 12.9911 13.9197H12.9831C12.824 13.8143 12.6534 13.7264 12.4745 13.6578C11.8492 13.4248 11.1841 13.311 10.5151 13.3226C8.7095 13.3226 7.1034 14.0807 5.74356 15.5736C5.63648 15.6914 5.53343 15.8119 5.43439 15.9337C3.73224 16.254 2.004 16.4231 0.270737 16.4391H0.00305176V17.7317C0.579913 17.7487 1.12064 17.7565 1.6346 17.7565C2.65716 17.7565 3.56327 17.725 4.39979 17.6609C3.96706 18.698 3.77416 19.816 3.83496 20.9346C3.90992 22.6998 4.46002 24.101 5.47053 25.1001C6.48104 26.0993 7.79405 26.6139 9.35194 26.6139C10.6749 26.6345 11.9641 26.205 12.9991 25.3986C13.3962 25.0979 13.7556 24.7524 14.0699 24.3694C14.8729 25.6867 16.2207 26.5956 18.1387 26.678C22.5702 26.7998 25.6553 21.5972 24.448 17.6007C24.5471 16.43 25.9993 15.8184 29.2664 15.5566C29.1004 18.3327 28.1782 25.2795 28.2491 25.5467C28.2855 25.7038 28.3666 25.8477 28.4832 25.9615C28.5997 26.0753 28.7469 26.1544 28.9077 26.1897C28.9947 26.2137 29.0848 26.2256 29.1753 26.225C29.5153 26.225 29.8138 26.0456 30.0895 25.675C30.4054 25.2493 31.3838 20.6701 31.5337 15.4334C32.4291 15.3601 33.7434 15.3261 35.3388 15.275C36.257 15.2462 37.0881 15.2318 37.8082 15.2318H37.8443V14.4304C37.8283 14.327 37.8269 14.2183 37.8216 14.1148ZM21.5142 23.1713C20.2092 24.7427 17.6783 25.2664 16.4135 23.4462C14.8234 21.2201 15.494 17.7368 17.2768 15.6247C17.4633 15.6713 17.6545 15.6977 17.8469 15.7032C18.4372 15.7242 18.4813 15.0995 19.1693 15.1703C22.7576 15.3745 23.7454 20.8613 21.5142 23.1713Z" fill="white"/>
</g>
<defs>
<linearGradient id="paint0_linear_390_1512" x1="1.26106" y1="1.40447e-07" x2="36.6024" y2="39.3461" gradientUnits="userSpaceOnUse">
<stop stop-color="#F7931E"/>
<stop offset="1" stop-color="#F15A40"/>
</linearGradient>
<clipPath id="clip0_390_1512">
<rect width="68" height="40" fill="white"/>
</clipPath>
</defs>
</svg>
