<svg width="170" height="24" viewBox="0 0 170 24" fill="none" xmlns="http://www.w3.org/2000/svg">
<path d="M37.3348 10.6763H39.993V6.66064L41.3309 5.30615H49.3358L50.6747 6.66357V17.3716L49.3358 18.6938H41.3309L39.993 17.3716V13.356H37.3348V18.6929H34.6591V5.30615H37.3348V10.6763ZM91.5389 6.66357V17.3716L90.2186 18.6929H69.3427L68.0253 17.3696V6.66064L69.3427 5.30615H90.2177L91.5389 6.66357ZM17.3075 6.66455V9.32178H14.6512V7.98389H7.9823V16.0142H14.6512V14.6948H17.3075V17.3726L15.9891 18.6919H6.62488L5.30652 17.3726V6.66455L6.62488 5.30713H15.9891L17.3075 6.66455ZM65.3495 6.66455V10.6792L64.0302 12.0181L65.3495 13.3569V17.3726L64.0302 18.6919H54.6659L53.3485 17.3726V14.6948H56.0233V16.0142H62.6932V13.3569H58.6796V10.6792H62.6932V7.98389H56.0233V9.32178H53.3485V6.66455L54.6659 5.30713H64.0302L65.3495 6.66455ZM31.9843 6.66357V17.3696L30.663 18.6909H21.2987L19.9823 17.3696V6.66064L21.2987 5.30615H30.663L31.9843 6.66357ZM70.6981 16.0347H72.3104V14.4204H70.6981V16.0347ZM79.2264 8.78369V14.0405L80.0204 14.8354H83.245V16.0347H84.8583V14.8335H88.0741L88.8798 14.0396V8.78369L88.0741 7.96729H80.0204L79.2264 8.78369ZM22.6581 16.0142H29.326V7.98486H22.6581V16.0142ZM42.6688 16.0142H48.0194V7.98486H42.6688V16.0142ZM70.6981 13.6274H77.1366L77.9325 12.8208V8.78662L77.1366 7.96729H70.6981V13.6274ZM83.245 13.2212H80.8397V9.58057H83.245V13.2212ZM87.2782 13.2212H84.8583V9.58057H87.2782V13.2212ZM76.33 12.0112H72.3104V9.58057H76.33V12.0112Z" fill="url(#paint0_linear_390_1484)"/>
<path d="M104.844 4L104.844 20" stroke="#5C0C70" stroke-linecap="round"/>
<path d="M116.988 18.5V8.34H113.004V7.22H122.284V8.34H118.316V18.5H116.988ZM122.562 18.5V10.468H123.746V17.3H123.314L128.434 10.468H129.522V18.5H128.354V11.652H128.786L123.666 18.5H122.562ZM133.789 18.5V11.508H130.877V10.468H138.013V11.508H135.085V18.5H133.789ZM142.479 18.644C141.764 18.644 141.14 18.4787 140.607 18.148C140.073 17.8067 139.657 17.3267 139.359 16.708C139.071 16.0893 138.927 15.348 138.927 14.484C138.927 13.6093 139.071 12.8627 139.359 12.244C139.657 11.6253 140.073 11.1507 140.607 10.82C141.14 10.4893 141.764 10.324 142.479 10.324C143.204 10.324 143.828 10.5107 144.351 10.884C144.884 11.2467 145.236 11.7427 145.407 12.372H145.215L145.391 10.468H146.639C146.607 10.7773 146.575 11.092 146.543 11.412C146.521 11.7213 146.511 12.0253 146.511 12.324V18.5H145.215V16.612H145.391C145.22 17.2413 144.868 17.7373 144.335 18.1C143.801 18.4627 143.183 18.644 142.479 18.644ZM142.735 17.588C143.503 17.588 144.111 17.3267 144.559 16.804C145.007 16.2707 145.231 15.4973 145.231 14.484C145.231 13.46 145.007 12.6867 144.559 12.164C144.111 11.6307 143.503 11.364 142.735 11.364C141.977 11.364 141.369 11.6307 140.911 12.164C140.463 12.6867 140.239 13.46 140.239 14.484C140.239 15.4973 140.463 16.2707 140.911 16.804C141.369 17.3267 141.977 17.588 142.735 17.588ZM149.124 18.5V10.468H150.42V13.828H154.836V10.468H156.132V18.5H154.836V14.868H150.42V18.5H149.124ZM158.687 18.5V10.468H159.983V13.348H162.399C163.433 13.348 164.212 13.572 164.735 14.02C165.268 14.4573 165.535 15.0813 165.535 15.892C165.535 16.436 165.412 16.9053 165.167 17.3C164.932 17.684 164.58 17.9827 164.111 18.196C163.652 18.3987 163.081 18.5 162.399 18.5H158.687ZM159.983 17.572H162.287C162.937 17.572 163.433 17.4387 163.775 17.172C164.116 16.8947 164.287 16.4733 164.287 15.908C164.287 15.3427 164.116 14.932 163.775 14.676C163.444 14.4093 162.948 14.276 162.287 14.276H159.983V17.572ZM166.751 18.5V10.468H168.031V18.5H166.751Z" fill="#505468"/>
<defs>
<linearGradient id="paint0_linear_390_1484" x1="8.38625" y1="6.31022" x2="42.9451" y2="52.6018" gradientUnits="userSpaceOnUse">
<stop stop-color="#4C1D95"/>
<stop offset="1" stop-color="#881D95"/>
</linearGradient>
</defs>
</svg>
