<svg width="489" height="41" viewBox="0 0 489 41" fill="none" xmlns="http://www.w3.org/2000/svg">
<path d="M277.229 38.8276C257.413 36.6706 237.587 34.9485 217.706 33.8563C206.55 33.244 195.393 32.8309 184.227 32.4514C169.138 31.9384 153.235 31.9002 138.528 27.4493C137.752 27.2148 140.116 27.166 140.913 27.0419C142.576 26.7826 144.258 26.6681 145.925 26.4541C150.073 25.921 154.198 25.563 158.359 25.2178C172.659 24.0304 186.996 23.3081 201.328 23.3516C243.163 23.4776 284.14 24.0879 325.792 29.1368C339.161 30.7576 352.48 32.6488 365.826 34.5074C368.893 34.9345 378.182 34.8076 380.276 38.1905C381.098 39.518 377.418 38.1415 375.99 38.0746C373.489 37.9576 371.009 37.9633 368.507 38.034C360.537 38.2588 352.565 37.9808 344.611 37.3558C321.175 35.5145 297.634 34.4671 274.157 33.1674C228.555 30.6433 183.056 25.4267 137.518 21.9082C123.889 20.8556 110.313 18.9883 96.6807 18.0313C89.0328 17.4945 78.5575 18.3588 71.6237 13.9567C70.1904 13.0469 74.8895 13.5184 76.5215 13.2917C79.4191 12.8897 82.2649 12.5265 85.1804 12.3016C94.8502 11.5561 104.631 11.957 114.325 11.5017C142.368 10.184 170.445 9.84545 198.519 10.1944C257.045 10.9234 316.516 12.1401 374.767 18.6912C397.641 21.2637 424.637 20.353 446.456 29.511C448.123 30.211 442.894 29.5376 441.12 29.6848C437.688 29.9698 434.208 29.643 430.766 29.8553C420.039 30.5178 409.357 29.4996 398.64 29.0376C366.668 27.6566 334.62 27.0952 302.6 25.897C267.265 24.5741 232.132 19.9235 196.863 17.453C156.659 14.6366 116.455 12.7622 76.2715 9.65765C57.3515 8.19554 38.4187 7.58617 19.4594 7.38704C16.7621 7.35884 4.01908 8.97289 2.21611 6.52508C0.996115 4.86948 5.97547 5.85166 7.85883 5.54413C12.1157 4.84922 16.3813 4.50255 20.6613 4.06467C32.1542 2.89084 43.7329 2.0546 55.2708 2.02763C90.4051 1.94638 125.547 4.00102 160.679 3.68745C199.478 3.34147 238.581 6.36351 277.372 7.94537C312.275 9.36907 347.374 7.69882 382.313 8.442C417.01 9.18055 452.248 16.2138 486.967 13.7288" stroke="#FBE1BA" stroke-width="4.05049" stroke-miterlimit="1.5" stroke-linecap="round" stroke-linejoin="round"/>
</svg>
