<svg width="40" height="40" viewBox="0 0 40 40" fill="none" xmlns="http://www.w3.org/2000/svg">
<g clip-path="url(#clip0_390_1476)">
<path d="M0.2547 19.2599C0.2547 10.2986 0.2547 5.81788 3.03864 3.03394C5.82258 0.25 10.3033 0.25 19.2646 0.25H20.8488C29.8101 0.25 34.2908 0.25 37.0747 3.03394C39.8587 5.81788 39.8587 10.2986 39.8587 19.2599V20.8441C39.8587 29.8054 39.8587 34.2861 37.0747 37.07C34.2908 39.854 29.8101 39.854 20.8488 39.854H19.2646C10.3033 39.854 5.82258 39.854 3.03864 37.07C0.2547 34.2861 0.2547 29.8054 0.2547 20.8441V19.2599Z" fill="#0077FF"/>
<path d="M21.3274 28.7815C12.3009 28.7815 7.15246 22.5934 6.93793 12.2964H11.4594C11.6079 19.8541 14.9412 23.0554 17.5814 23.7155V12.2964H21.839V18.8145C24.4462 18.534 27.1852 15.5637 28.1093 12.2964H32.3668C31.6573 16.3228 28.687 19.2931 26.5748 20.5142C28.687 21.5043 32.07 24.095 33.3571 28.7815H28.6705C27.6639 25.6462 25.1558 23.2205 21.839 22.8904V28.7815H21.3274Z" fill="white"/>
</g>
<defs>
<clipPath id="clip0_390_1476">
<rect width="40" height="40" fill="white"/>
</clipPath>
</defs>
</svg>
